<?xml version="1.0" standalone="no"?> <!DOCTYPE svg PUBLIC "-//W3C//DTD SVG 20010904//EN" "http://www.w3.org/TR/2001/REC-SVG-20010904/DTD/svg10.dtd"> <svg version="1.0" xmlns="http://www.w3.org/2000/svg" width="1800.000000pt" height="1569.000000pt" viewBox="0 0 1800.000000 1569.000000" preserveAspectRatio="xMidYMid meet"> <g transform="translate(0.000000,1569.000000) scale(0.100000,-0.100000)" fill="#3d3d3d" stroke="none"> <path d="M11260 15260 c-311 -4 -641 -13 -735 -19 -93 -7 -290 -14 -437 -16 -147 -2 -294 -9 -325 -14 -32 -5 -89 -13 -128 -16 -38 -3 -126 -14 -195 -23 -69 -9 -152 -16 -185 -16 -105 1 -348 24 -405 39 -69 18 -454 23 -725 10 -104 -6 -278 -7 -385 -3 -107 4 -310 12 -450 16 -204 7 -264 13 -300 27 -48 18 -23 19 -505 -5 -98 -4 -198 -16 -258 -29 -125 -27 -129 -26 -166 5 -28 23 -36 25 -83 19 -29 -4 -94 -27 -145 -51 -94 -44 -127 -52 -138 -34 -8 13 -74 13 -113 -1 -17 -6 -38 -21 -47 -35 -8 -13 -46 -39 -83 -58 -37 -19 -101 -54 -142 -78 -41 -24 -97 -54 -125 -67 -27 -13 -79 -42 -115 -66 -36 -23 -90 -55 -120 -70 -30 -15 -75 -43 -99 -61 -63 -49 -123 -42 -191 22 -71 66 -153 64 -186 -4 -15 -33 -16 -44 -4 -107 25 -136 25 -144 -6 -176 -15 -16 -72 -59 -126 -95 -78 -53 -336 -257 -358 -284 -3 -3 -25 -21 -50 -40 -25 -18 -93 -80 -151 -137 -58 -57 -111 -103 -118 -103 -6 0 -33 19 -59 43 -77 70 -130 84 -183 46 -33 -24 -48 -69 -38 -119 13 -64 39 -155 55 -188 20 -43 11 -67 -39 -103 -91 -66 -372 -356 -432 -445 -22 -33 -47 -68 -56 -79 -10 -11 -30 -43 -46 -71 -15 -28 -43 -64 -62 -80 l-33 -28 -67 19 c-104 29 -136 30 -160 6 -45 -45 -17 -161 53 -222 34 -30 46 -48 46 -68 0 -40 -103 -201 -186 -290 -113 -122 -113 -123 -182 -319 -29 -83 -41 -106 -63 -118 -19 -10 -36 -35 -59 -91 -71 -170 -80 -180 -155 -158 -59 18 -181 19 -214 2 -13 -6 -28 -22 -32 -35 -8 -20 0 -33 54 -90 34 -37 86 -87 114 -112 64 -53 64 -56 23 -218 -35 -140 -120 -570 -120 -610 0 -39 -35 -139 -64 -182 -13 -19 -27 -46 -31 -60 -4 -14 -18 -42 -31 -62 -20 -31 -31 -38 -69 -43 -25 -4 -65 -2 -90 4 -55 14 -110 14 -136 1 -51 -28 1 -123 91 -166 79 -38 171 -105 181 -131 6 -16 2 -43 -10 -85 -11 -35 -24 -83 -31 -108 -6 -25 -18 -67 -27 -95 -11 -37 -17 -109 -20 -280 l-5 -229 -43 -56 c-24 -30 -57 -68 -74 -84 -17 -17 -31 -36 -31 -44 0 -35 36 -82 97 -127 l66 -49 -7 -125 c-4 -69 -11 -152 -17 -184 -13 -73 -15 -183 -4 -270 8 -66 1 -121 -27 -214 -5 -18 -33 -53 -63 -82 -74 -67 -84 -90 -56 -130 21 -29 63 -59 126 -91 28 -14 30 -19 38 -96 7 -65 5 -108 -12 -210 -23 -144 -20 -198 14 -259 21 -38 22 -46 14 -155 -5 -63 -11 -169 -14 -236 -10 -281 -19 -331 -61 -358 -27 -18 -49 -83 -40 -119 3 -14 22 -34 41 -46 l35 -21 -6 -322 c-3 -178 -10 -377 -16 -443 -6 -66 -12 -149 -15 -185 -4 -59 -8 -69 -42 -105 -21 -22 -41 -48 -44 -57 -9 -26 22 -109 56 -147 32 -38 33 -49 7 -191 -13 -73 -7 -322 10 -380 6 -19 11 -154 13 -300 2 -300 3 -296 -79 -374 -25 -25 -44 -52 -44 -64 0 -28 60 -95 104 -116 57 -27 58 -31 57 -203 -1 -87 0 -282 3 -433 6 -261 5 -277 -14 -307 -10 -18 -37 -41 -59 -53 -71 -36 -62 -101 17 -138 20 -9 52 -29 70 -44 43 -36 102 -39 124 -6 14 21 18 22 50 10 19 -6 45 -12 59 -12 14 0 56 -20 94 -45 39 -25 90 -53 115 -62 25 -9 77 -33 115 -54 83 -45 165 -70 370 -114 75 -17 83 -21 125 -68 27 -29 66 -58 96 -72 29 -13 87 -47 130 -76 110 -75 324 -189 355 -189 6 0 34 -15 62 -34 56 -37 89 -47 232 -70 185 -30 324 -39 394 -27 61 12 73 11 166 -14 55 -14 120 -36 145 -47 28 -13 79 -24 135 -28 50 -5 117 -13 150 -19 52 -9 252 -33 410 -48 30 -3 97 4 165 17 63 12 162 23 220 25 58 2 126 8 153 14 26 6 78 10 115 9 51 -1 77 4 109 20 39 21 47 21 185 11 78 -6 181 -18 228 -27 47 -8 108 -16 135 -15 180 2 224 6 298 29 43 13 99 24 124 24 39 0 50 5 84 39 47 46 50 82 14 131 -30 41 -31 61 -5 85 29 26 25 52 -18 109 -21 28 -47 66 -58 83 -41 70 -158 232 -224 313 -111 134 -253 325 -263 353 -9 24 9 66 37 88 23 18 68 116 139 304 65 169 68 187 74 392 l6 192 44 45 c49 51 52 65 26 173 -16 72 -16 73 5 95 11 13 39 64 62 113 23 50 51 108 62 130 12 22 58 110 102 195 l81 155 107 -1 c71 -1 112 -5 123 -14 12 -10 15 -33 14 -104 -1 -50 3 -111 10 -136 6 -25 11 -69 11 -98 0 -37 9 -75 30 -122 39 -89 39 -128 0 -165 -33 -32 -40 -79 -19 -132 23 -56 28 -106 13 -128 -16 -25 -38 -98 -60 -200 -11 -50 -14 -101 -10 -180 3 -60 9 -184 12 -275 l6 -165 -40 -120 c-22 -66 -46 -156 -53 -201 -11 -74 -10 -84 7 -120 28 -57 52 -66 164 -59 105 7 192 -8 308 -51 120 -46 265 -26 375 50 52 37 67 53 67 72 0 38 -42 74 -87 74 -21 1 -60 9 -88 18 -47 17 -174 93 -238 143 l-29 22 7 131 c9 175 36 326 86 479 16 48 29 97 29 109 0 12 12 34 26 49 l27 28 -13 78 -13 78 38 90 c56 134 60 162 28 231 l-26 56 38 142 c21 77 50 188 66 246 15 58 40 159 55 225 21 97 32 127 56 154 29 33 30 36 24 110 -9 93 -33 271 -46 329 -6 23 -10 58 -10 76 0 19 -7 70 -15 113 -9 43 -20 110 -25 148 -5 39 -12 77 -15 85 -3 9 10 39 29 69 19 30 38 68 42 85 3 17 26 69 51 116 41 80 65 110 86 110 15 0 77 -73 77 -90 0 -9 7 -39 15 -66 53 -169 73 -213 113 -257 24 -25 25 -30 14 -60 -10 -29 -9 -45 14 -118 25 -83 25 -85 8 -144 -9 -33 -21 -72 -26 -87 -20 -54 29 -127 85 -128 42 0 31 34 -16 45 -20 5 -27 13 -27 31 0 14 7 27 15 31 9 3 84 -3 168 -12 247 -29 379 -30 583 -5 263 32 366 62 515 148 57 32 76 61 56 81 -17 17 -31 13 -60 -16 -68 -71 -362 -172 -417 -143 -28 15 -18 27 33 41 48 12 228 79 300 112 27 12 57 32 67 44 10 13 27 23 39 23 12 0 63 -23 114 -51 50 -28 103 -56 117 -64 28 -15 38 -49 20 -71 -20 -23 -50 -16 -85 21 -31 34 -33 35 -64 22 -18 -8 -41 -27 -51 -44 -16 -28 -96 -73 -217 -125 l-28 -12 34 -4 c30 -3 132 31 203 69 25 13 54 11 65 -3 5 -7 17 -39 27 -70 16 -48 17 -62 6 -87 -6 -17 -24 -34 -39 -40 -24 -9 -24 -9 14 -10 52 -1 65 -15 65 -67 0 -22 5 -54 10 -71 16 -45 0 -76 -52 -97 -23 -10 -55 -24 -70 -32 -14 -8 -40 -14 -57 -14 -17 0 -70 -11 -118 -25 -48 -14 -119 -30 -157 -36 -38 -5 -75 -14 -82 -20 -17 -14 -65 -7 -75 11 -12 25 -60 174 -62 195 -2 17 7 21 67 30 38 5 71 15 73 22 6 18 -42 27 -88 15 -53 -13 -79 -6 -79 24 0 24 16 32 68 32 12 1 55 9 95 19 66 16 69 18 35 21 -20 2 -47 -2 -59 -8 -28 -15 -406 -11 -704 7 -193 12 -223 16 -248 34 -35 25 -53 19 -62 -20 -3 -17 -18 -39 -33 -50 -24 -17 -25 -21 -14 -43 11 -20 10 -30 -8 -70 -11 -26 -25 -50 -30 -53 -6 -3 -10 -18 -10 -31 0 -32 24 -27 28 5 6 39 45 48 105 23 49 -20 69 -22 290 -22 151 0 237 4 237 10 0 9 -46 12 -240 15 -134 2 -309 29 -322 49 -15 22 -8 54 11 59 11 3 57 1 103 -4 249 -25 306 -31 443 -40 162 -11 186 -20 165 -58 -13 -26 -48 -41 -93 -41 -24 0 -28 -3 -17 -10 8 -5 27 -10 43 -10 22 0 27 -4 27 -25 0 -40 -64 -61 -90 -30 -9 11 -35 15 -99 15 -114 1 -254 14 -374 36 -74 13 -101 14 -110 5 -31 -31 50 -50 258 -62 94 -5 216 -12 272 -16 108 -6 130 -15 118 -53 -7 -24 -42 -25 -195 -10 -52 5 -167 15 -255 21 -88 5 -177 15 -198 20 -23 6 -44 6 -54 1 -14 -8 -13 -12 10 -27 18 -11 62 -19 144 -26 65 -5 161 -13 213 -19 52 -5 134 -10 183 -10 75 0 90 -3 108 -21 15 -15 18 -24 10 -32 -14 -14 -388 -10 -496 5 -161 23 -213 8 -83 -24 98 -24 266 -32 417 -20 68 6 130 8 137 5 22 -8 34 -58 20 -85 -9 -17 -11 -49 -7 -106 6 -71 10 -85 33 -109 27 -26 27 -26 83 -13 46 11 68 11 118 1 147 -29 195 -63 222 -155 20 -70 24 -272 7 -391 -7 -49 -17 -135 -23 -190 -6 -55 -20 -161 -31 -235 -11 -74 -24 -182 -29 -240 -5 -58 -12 -119 -15 -137 -4 -23 -1 -36 14 -51 25 -25 137 -52 257 -62 76 -7 99 -14 148 -42 97 -55 104 -58 121 -52 21 8 20 26 -3 56 -29 36 -32 88 -6 88 19 0 45 -51 45 -88 0 -15 4 -32 10 -38 5 -5 28 -70 51 -144 l41 -135 -11 -110 c-7 -60 -9 -124 -5 -141 11 -58 73 -126 153 -168 87 -46 96 -43 156 41 22 31 54 64 70 74 33 21 95 25 127 8 29 -15 63 -4 76 26 17 36 16 38 -23 85 -19 23 -38 54 -42 69 -3 14 -22 60 -41 100 -44 97 -57 134 -81 234 -19 85 -27 282 -12 292 13 7 28 -16 36 -55 4 -19 16 -53 27 -74 24 -47 37 -35 39 34 0 25 4 56 8 68 6 22 8 20 28 -22 13 -25 25 -65 29 -89 7 -52 23 -97 35 -97 5 0 9 9 9 21 0 12 6 35 14 52 8 18 18 46 23 62 16 49 39 38 63 -29 16 -44 24 -23 32 82 4 53 10 116 13 138 6 35 -29 366 -40 384 -2 3 -6 83 -9 178 -4 121 -2 180 6 199 11 27 12 25 18 -32 4 -33 17 -139 29 -235 28 -232 38 -313 52 -450 7 -63 18 -130 26 -149 30 -75 8 -154 -60 -220 -40 -38 -88 -51 -134 -37 -27 7 -36 6 -53 -9 -24 -22 -65 -23 -88 -1 -14 12 -21 13 -30 4 -16 -16 -15 -43 3 -58 19 -16 132 -9 232 15 91 21 132 59 180 164 40 89 73 127 122 141 83 25 138 40 162 44 14 3 46 23 70 45 25 22 64 49 87 61 32 17 42 28 42 47 0 16 -7 27 -19 30 -16 4 -18 8 -9 22 18 30 -29 378 -86 631 -9 36 -18 112 -21 170 -3 58 -14 168 -25 245 -31 233 -39 306 -45 410 -6 105 -28 304 -47 415 -5 36 -14 139 -18 230 -5 91 -15 203 -24 250 -36 189 -36 189 -66 205 -29 15 -33 23 -45 82 -5 26 0 44 25 87 17 30 49 105 70 166 22 61 47 124 55 140 8 16 22 62 30 102 26 121 35 147 56 158 17 9 28 3 78 -45 49 -46 71 -60 136 -80 43 -14 88 -25 101 -25 25 0 130 82 162 127 10 15 29 54 40 85 12 32 26 66 31 75 27 52 42 109 36 144 -5 30 2 55 37 135 l43 99 -4 120 c-9 276 -9 278 22 314 23 27 27 42 27 90 0 47 5 66 29 102 25 37 30 58 36 134 4 50 14 109 22 133 16 41 15 46 -7 100 -13 31 -36 74 -51 94 -26 37 -26 38 -33 270 -4 128 -9 263 -12 300 -6 64 -5 68 22 93 21 19 30 39 35 78 3 29 10 67 14 85 9 38 -11 46 -21 7 -6 -24 -9 -27 -34 -29 -6 -1 -23 24 -38 54 -19 38 -34 56 -49 58 -34 5 -46 28 -49 94 -4 92 34 146 74 106 20 -20 25 -2 30 100 5 100 -2 123 -30 105 -7 -4 -22 -7 -33 -8 -11 0 -28 -14 -40 -32 -11 -17 -31 -38 -45 -45 -37 -19 -40 -27 -39 -93 0 -33 -2 -73 -6 -88 -6 -24 -3 -33 24 -55 17 -15 34 -41 37 -58 5 -25 0 -37 -29 -67 -45 -48 -77 -49 -111 -4 -23 30 -26 44 -26 110 0 69 3 79 28 109 30 34 62 119 62 161 0 14 7 44 15 67 18 52 20 165 3 180 -7 6 -21 17 -32 24 -16 11 -18 20 -12 70 6 45 11 56 24 54 14 -2 18 7 20 46 5 72 -31 136 -74 136 -30 0 -40 36 -24 84 16 48 34 46 92 -11 26 -26 50 -44 53 -41 3 3 -1 39 -10 79 -9 41 -20 101 -25 134 -11 79 -30 154 -42 161 -5 3 -15 1 -22 -5 -10 -8 -17 -6 -29 7 -36 39 -29 102 16 150 23 25 27 64 13 150 -7 49 -7 52 13 52 14 0 22 -8 27 -27 3 -16 7 -32 8 -38 2 -5 6 45 11 113 4 67 10 122 14 122 3 0 21 -35 40 -78 18 -42 51 -107 72 -143 22 -36 52 -101 68 -145 25 -69 32 -79 55 -82 40 -5 58 -42 67 -140 16 -154 39 -226 67 -208 5 3 12 25 16 48 9 57 26 108 36 108 20 0 26 -135 9 -210 -15 -67 6 -208 36 -236 15 -14 25 -38 30 -73 4 -28 13 -57 19 -64 23 -23 38 -59 48 -116 18 -102 15 -130 -28 -216 -68 -133 -87 -100 -59 101 12 91 13 119 4 130 -20 24 -40 12 -68 -41 -29 -54 -55 -69 -66 -36 -3 12 -10 21 -14 21 -15 0 -28 -45 -20 -70 4 -14 10 -41 14 -62 6 -41 34 -59 50 -32 6 9 20 29 32 43 27 31 27 25 9 -87 -10 -62 -20 -90 -38 -110 -64 -70 -77 -88 -99 -133 -25 -54 -20 -74 11 -41 21 23 45 28 54 13 3 -4 8 -64 10 -131 5 -138 15 -163 60 -142 16 7 29 27 42 64 9 29 28 69 41 89 14 22 32 75 44 135 17 88 33 124 64 146 16 12 23 10 50 -20 50 -51 82 -107 89 -152 4 -24 17 -60 29 -80 20 -32 22 -47 22 -203 0 -155 2 -170 20 -183 10 -8 32 -14 48 -14 35 0 68 33 147 144 68 96 124 174 144 201 l14 20 20 -20 c60 -59 131 -347 117 -472 -7 -68 2 -93 35 -93 10 0 28 12 40 28 11 15 39 50 61 77 22 28 58 81 80 118 51 85 73 88 102 12 16 -40 20 -85 24 -225 6 -193 11 -210 65 -210 24 0 45 16 109 81 66 68 82 79 94 69 29 -24 17 -227 -21 -349 -20 -63 -18 -88 10 -106 29 -19 48 -13 111 40 60 51 88 66 101 57 38 -25 142 -379 183 -622 44 -254 50 -565 14 -665 -12 -32 -14 -95 -11 -325 l3 -285 -30 -45 c-17 -25 -57 -97 -90 -160 -73 -144 -113 -205 -160 -250 -20 -19 -52 -58 -70 -86 -18 -28 -64 -83 -102 -121 -37 -38 -85 -93 -106 -123 -21 -30 -48 -71 -62 -90 -13 -19 -46 -78 -72 -130 -27 -52 -71 -138 -98 -190 -61 -121 -90 -162 -173 -253 -171 -187 -212 -260 -212 -376 0 -46 -2 -48 -85 -124 -47 -43 -97 -99 -112 -125 -14 -26 -48 -76 -73 -112 -86 -118 -184 -324 -220 -460 -6 -25 -15 -77 -19 -117 -10 -91 -46 -155 -115 -200 -122 -80 -288 -244 -372 -368 -33 -50 -89 -146 -124 -215 -34 -69 -66 -130 -71 -136 -5 -6 -20 -40 -33 -75 -13 -35 -39 -98 -56 -139 -20 -47 -34 -99 -37 -140 -5 -56 -11 -70 -39 -103 -40 -44 -42 -72 -10 -116 37 -49 56 -59 163 -85 161 -39 174 -39 294 -10 102 25 110 26 133 10 14 -9 51 -26 82 -37 47 -18 71 -21 132 -16 67 5 80 3 116 -18 23 -13 61 -26 86 -30 70 -10 197 -53 279 -93 76 -38 103 -41 221 -28 75 8 296 25 460 36 85 6 182 17 215 25 33 9 103 24 155 34 52 11 127 27 165 36 125 30 158 36 280 55 66 11 153 31 194 45 41 14 94 25 117 25 24 0 69 7 101 15 34 9 75 13 98 9 42 -6 172 24 227 52 30 15 92 24 333 44 144 12 207 24 300 55 39 13 90 26 115 30 62 8 172 33 250 55 36 10 119 34 185 52 65 18 131 43 145 54 32 27 116 69 155 78 71 17 183 68 395 182 19 11 55 40 81 65 38 38 50 60 72 131 26 81 61 139 110 180 12 10 34 28 49 41 27 22 28 24 29 142 0 66 -4 143 -9 170 -7 33 -7 90 -1 170 15 175 14 173 93 219 52 29 72 47 83 74 30 72 1 119 -110 182 -33 18 -67 46 -77 63 -26 43 -34 100 -18 129 10 18 13 91 13 313 0 289 0 290 24 324 13 18 47 48 76 67 63 40 115 113 115 161 0 29 -5 36 -35 49 -19 7 -48 14 -65 14 -76 0 -102 42 -111 180 -18 268 -30 595 -27 695 3 90 8 118 27 154 27 51 62 86 114 112 63 33 77 53 77 110 0 44 -4 55 -33 84 -22 22 -47 36 -73 40 -21 4 -45 8 -52 11 -28 9 -40 69 -42 219 -1 83 -3 195 -4 250 0 55 -1 187 -1 293 l0 193 55 50 c30 27 74 67 98 88 23 20 42 43 42 50 0 16 -43 55 -104 94 -74 48 -77 62 -77 375 0 167 -5 307 -14 385 -17 145 -19 251 -5 278 6 10 41 33 78 49 111 51 151 104 130 174 -15 46 -68 102 -107 111 -52 11 -55 22 -45 163 12 186 11 384 -3 492 -24 185 -32 236 -38 262 -8 29 9 68 29 68 25 0 98 62 112 95 8 19 14 61 14 93 0 72 -16 90 -89 99 -33 4 -55 12 -60 22 -9 18 -24 141 -23 186 1 17 2 57 3 90 2 33 -3 98 -10 145 -24 159 -33 255 -31 330 1 71 2 76 32 102 18 15 61 37 96 49 112 37 170 111 142 179 -17 41 -98 80 -166 80 -77 0 -102 25 -110 110 -3 36 -12 89 -19 118 -10 36 -12 83 -9 150 6 102 -12 260 -40 350 -15 49 -33 143 -42 222 -5 43 -3 49 34 87 22 22 72 60 112 84 98 58 193 148 188 179 -4 32 -44 58 -109 71 -53 11 -60 9 -170 -29 -147 -53 -157 -47 -192 93 -8 33 -24 87 -35 120 -11 33 -26 85 -32 115 -14 63 -90 253 -124 314 -13 23 -27 53 -30 69 -4 15 -19 49 -35 75 -38 63 -45 96 -27 135 60 133 67 165 44 185 -7 5 -48 13 -91 17 -59 6 -87 14 -117 34 -54 36 -131 111 -224 219 -44 51 -88 94 -98 98 -27 8 -81 80 -122 162 -32 65 -35 79 -30 126 6 46 2 60 -29 123 -47 92 -80 105 -149 58 -21 -14 -51 -28 -68 -32 -28 -5 -37 1 -105 68 -114 114 -176 164 -225 183 -25 9 -69 33 -99 54 -29 20 -76 45 -105 57 -54 22 -182 118 -229 172 -22 25 -30 46 -34 90 -8 81 -23 96 -89 87 -49 -6 -55 -4 -111 34 -32 21 -78 49 -103 62 -25 12 -61 35 -80 49 -32 25 -127 81 -250 148 -24 14 -60 38 -79 55 -19 16 -54 39 -80 50 -44 18 -79 19 -1046 22 -550 2 -1254 0 -1565 -4z m2286 -2224 c4 -9 -76 -97 -220 -243 -124 -125 -243 -253 -264 -283 -22 -30 -76 -129 -120 -220 -44 -91 -104 -201 -133 -245 -62 -96 -137 -185 -154 -185 -7 0 -41 22 -76 50 -35 27 -86 67 -114 88 -157 122 -313 181 -485 183 -110 1 -171 -30 -328 -171 -77 -69 -111 -119 -208 -307 -86 -166 -91 -175 -127 -217 l-34 -38 -184 -18 c-101 -10 -224 -24 -272 -30 -61 -8 -92 -9 -99 -2 -10 10 22 67 130 229 24 35 66 110 93 166 77 161 119 229 186 301 56 61 143 128 214 165 15 7 59 42 99 77 54 47 108 81 214 133 205 101 318 145 606 232 91 27 200 63 242 79 43 17 92 30 110 30 18 0 71 14 118 31 260 94 327 113 570 159 63 12 138 28 165 35 65 18 65 18 71 1z m-8581 -285 c33 -10 106 -26 163 -35 115 -19 144 -26 352 -89 216 -66 296 -94 494 -172 90 -35 258 -115 277 -131 8 -8 53 -29 100 -48 187 -76 282 -118 317 -140 93 -60 209 -215 304 -406 39 -80 99 -194 133 -255 34 -60 74 -134 89 -163 35 -72 86 -218 86 -248 0 -34 -26 -41 -58 -15 -15 12 -47 31 -71 42 -40 19 -58 21 -228 18 -173 -4 -186 -2 -199 16 -8 10 -14 32 -14 48 0 34 -42 157 -69 202 -10 16 -26 51 -35 76 -18 46 -109 152 -176 201 -19 15 -80 49 -134 77 l-100 51 -111 0 c-193 0 -262 -38 -371 -205 -32 -49 -62 -85 -72 -85 -32 0 -179 172 -242 283 -17 30 -40 92 -51 138 -12 46 -44 129 -72 184 -27 55 -61 123 -75 150 -13 28 -45 82 -70 120 -105 162 -181 274 -196 292 -69 77 -76 90 -59 106 10 10 22 9 88 -12z m7063 -643 c24 -24 3 -266 -32 -365 -8 -23 -12 -50 -9 -61 3 -12 -2 -22 -13 -26 -25 -10 -38 8 -25 32 7 13 11 93 11 214 0 199 4 218 40 218 9 0 21 -5 28 -12z m143 -35 c16 -42 -11 -181 -58 -302 -20 -51 -23 -69 -14 -88 11 -24 35 -31 46 -12 13 20 77 234 90 298 7 35 18 67 26 72 9 5 28 0 54 -15 56 -34 62 -47 37 -82 -12 -16 -32 -58 -46 -94 -13 -36 -35 -84 -48 -107 -25 -43 -113 -143 -127 -143 -4 0 -16 7 -27 15 -10 8 -26 15 -35 15 -35 0 -42 26 -19 69 21 42 50 221 50 310 0 70 9 91 36 91 17 0 28 -8 35 -27z m-291 7 c12 -7 15 -35 15 -146 0 -91 -4 -139 -11 -141 -6 -2 -27 41 -47 99 -52 150 -50 141 -23 171 27 29 42 33 66 17z m-108 -177 c16 -40 33 -105 38 -144 12 -86 23 -108 61 -121 26 -9 42 -38 21 -38 -5 0 -31 -20 -58 -45 -27 -25 -51 -45 -54 -45 -9 0 -133 131 -179 189 -45 58 -51 87 -22 122 30 37 48 18 119 -125 55 -109 67 -126 88 -126 35 0 32 49 -6 102 -16 22 -30 45 -30 50 0 5 -20 44 -45 88 -25 44 -45 86 -45 95 0 9 10 29 22 46 36 48 58 36 90 -48z m680 20 c27 -24 22 -57 -18 -141 -50 -104 -99 -169 -146 -193 -38 -19 -68 -20 -68 -1 0 4 20 30 44 56 42 47 53 70 112 224 29 75 43 85 76 55z m126 -111 c4 -24 -48 -82 -74 -82 -18 0 -18 2 7 61 18 40 26 49 43 47 13 -2 22 -12 24 -26z m-6405 -96 c36 -36 24 -381 -13 -381 -17 0 -23 34 -39 238 -6 76 -9 142 -6 148 9 14 42 11 58 -5z m-131 -26 c27 -94 38 -178 38 -287 0 -70 -4 -123 -9 -123 -15 0 -34 99 -46 231 -3 37 -14 93 -25 125 -11 32 -18 64 -15 72 8 22 49 10 57 -18z m5570 -84 c89 -111 92 -116 79 -116 -30 0 -201 135 -201 158 0 23 31 53 45 44 8 -4 42 -42 77 -86z m-5670 24 c17 -50 38 -179 42 -255 3 -77 -41 -15 -108 151 -20 50 -36 98 -36 107 0 20 49 59 68 55 8 -2 24 -28 34 -58z m406 8 c46 -35 108 -91 115 -104 8 -15 -27 -84 -42 -84 -4 0 -24 -34 -45 -75 -28 -56 -43 -75 -58 -75 -15 0 -18 4 -13 18 4 9 10 28 15 42 4 14 22 54 39 88 18 35 31 73 29 85 -6 44 -28 26 -70 -58 -29 -59 -47 -85 -58 -83 -10 3 -14 14 -13 38 1 19 2 75 2 124 1 49 5 94 11 101 12 15 59 5 88 -17z m5201 -123 c58 -48 76 -75 49 -75 -15 0 -139 85 -149 102 -10 17 10 40 26 30 8 -4 41 -29 74 -57z m512 46 c16 -13 21 -23 14 -30 -12 -11 -135 -41 -171 -41 -22 0 -23 3 -14 20 16 31 81 70 116 70 18 0 42 -9 55 -19z m-6225 -87 c42 -90 35 -113 -18 -59 -37 38 -66 105 -54 124 17 27 39 7 72 -65z m5602 0 c34 -23 28 -44 -12 -44 -37 0 -49 15 -34 43 11 21 17 21 46 1z m303 -9 c-1 -15 -24 -12 -29 3 -3 9 2 13 12 10 10 -1 17 -7 17 -13z m-5200 -26 c31 -43 32 -66 7 -90 -25 -23 -142 -99 -152 -99 -27 0 34 148 80 194 31 30 41 30 65 -5z m72 -146 c11 -20 15 -60 8 -72 -5 -7 -32 -17 -60 -22 -29 -4 -66 -15 -83 -23 -41 -21 -58 -20 -58 3 0 18 41 55 110 98 35 22 75 30 83 16z m-352 -71 c24 -16 50 -36 57 -45 16 -19 8 -37 -16 -37 -29 0 -146 40 -153 52 -10 17 1 39 25 48 32 13 39 12 87 -18z m377 -89 c-4 -22 -48 -29 -79 -13 -29 16 -8 30 44 30 31 0 38 -3 35 -17z m5052 -686 c0 -17 4 -47 9 -65 12 -40 6 -41 -14 -2 -17 33 -20 100 -5 100 6 0 10 -15 10 -33z m-325 -1060 c9 -50 9 -208 0 -248 -6 -28 -35 -42 -35 -16 0 7 -9 29 -19 48 -16 30 -19 49 -14 111 4 57 2 81 -11 106 -16 31 -21 83 -10 95 4 4 24 -7 45 -23 29 -23 39 -40 44 -73z m-2212 -84 c22 -57 32 -136 32 -258 l0 -110 25 0 c21 0 31 11 62 75 20 41 41 95 47 120 27 119 77 201 94 156 3 -8 16 -96 29 -195 19 -156 20 -187 9 -230 -23 -89 17 -98 87 -19 62 68 77 94 132 222 26 61 52 112 57 113 6 2 24 -39 42 -91 34 -105 40 -180 15 -227 -8 -16 -12 -39 -9 -50 12 -36 46 -18 91 46 55 80 80 163 112 380 15 103 57 44 95 -135 50 -232 48 -219 32 -297 -8 -39 -20 -84 -26 -99 -12 -34 -5 -70 17 -78 31 -12 61 21 92 101 16 44 42 96 56 117 26 38 66 151 66 186 0 10 6 33 14 51 7 19 16 43 20 53 7 19 7 19 26 0 20 -21 60 -141 60 -180 0 -14 -13 -66 -30 -116 -16 -50 -30 -98 -30 -107 0 -9 -10 -52 -21 -96 -12 -44 -29 -114 -39 -155 -19 -79 -174 -550 -234 -709 -30 -82 -57 -129 -122 -218 -9 -13 -13 -30 -9 -43 5 -17 13 -20 43 -18 29 2 36 0 33 -12 -2 -8 -6 -28 -9 -44 -4 -28 -3 -28 24 -21 16 4 60 8 97 10 73 2 87 10 87 53 0 12 7 25 15 27 51 16 50 14 18 47 -26 26 -39 31 -72 30 -45 -2 -57 9 -42 36 14 27 72 52 119 52 51 0 163 -34 194 -59 19 -16 21 -23 12 -38 -9 -14 -22 -17 -65 -15 -76 4 -81 -2 -67 -72 17 -78 35 -87 117 -57 48 18 63 21 81 11 35 -19 72 -8 92 27 27 46 35 183 15 253 -9 30 -19 109 -23 175 -3 66 -12 143 -20 170 -7 28 -18 110 -24 182 -6 73 -15 157 -21 185 -29 155 -48 336 -42 400 4 53 2 77 -11 106 -16 36 -16 39 11 112 33 89 49 117 59 108 10 -11 23 -93 23 -154 1 -53 13 -74 43 -74 19 0 59 70 88 154 28 84 33 79 95 -79 26 -66 28 -82 35 -305 5 -129 11 -243 15 -252 9 -22 32 -30 53 -19 29 15 113 181 138 270 13 45 32 98 43 116 42 71 55 142 54 298 0 82 4 147 9 147 5 0 19 -6 31 -12 12 -7 35 -17 51 -23 18 -6 30 -18 31 -30 2 -11 8 -60 15 -108 10 -69 11 -96 1 -122 -6 -18 -11 -57 -10 -86 2 -49 -13 -109 -25 -109 -3 0 -12 12 -20 28 -15 27 -15 27 -16 -26 0 -78 51 -190 117 -256 57 -57 77 -112 49 -135 -22 -19 -20 -41 7 -69 20 -22 23 -37 31 -210 5 -103 9 -231 10 -285 l1 -98 -38 -32 c-46 -38 -55 -83 -37 -167 7 -30 13 -77 14 -104 1 -62 20 -70 57 -25 l28 34 43 -23 c24 -12 48 -22 54 -22 22 0 24 30 4 47 -25 22 -25 48 0 80 19 25 19 27 3 45 -25 28 -55 18 -78 -24 -24 -45 -45 -55 -62 -32 -16 21 -16 56 -3 105 12 42 59 69 119 69 21 0 52 7 70 16 31 16 33 15 57 -7 13 -12 24 -28 24 -35 0 -6 7 -17 15 -24 22 -18 18 -56 -11 -106 -24 -41 -25 -48 -15 -91 13 -49 7 -96 -12 -111 -7 -5 -38 -12 -69 -16 -53 -6 -60 -4 -80 19 -20 23 -24 24 -43 11 -12 -8 -35 -16 -50 -18 -27 -3 -29 -6 -32 -53 -2 -34 -12 -63 -31 -90 -15 -22 -38 -61 -52 -87 -16 -31 -28 -44 -34 -38 -6 6 -20 10 -33 10 -17 0 -23 6 -23 23 0 47 23 102 58 138 80 81 86 90 73 99 -21 12 -50 0 -87 -38 -42 -43 -79 -106 -88 -149 -15 -65 -95 -111 -199 -112 -40 0 -57 6 -110 43 -34 24 -91 56 -127 71 -81 33 -88 40 -92 89 -3 41 7 51 67 72 18 6 17 7 -10 18 -16 6 -44 19 -62 29 -39 21 -62 21 -100 3 -15 -7 -41 -20 -58 -27 -25 -12 -30 -21 -33 -57 l-3 -43 -47 52 c-26 29 -49 64 -52 78 -5 25 -8 26 -83 27 -64 1 -80 -2 -84 -15 -10 -36 -22 -47 -64 -61 -24 -8 -50 -19 -56 -23 -14 -9 -39 3 -98 45 -48 36 -76 34 -208 -10 -47 -16 -91 -26 -98 -21 -16 9 -6 213 15 314 15 75 36 342 36 466 0 41 4 100 10 130 5 30 14 131 20 224 6 94 13 204 17 246 5 71 4 78 -16 88 -19 11 -64 9 -157 -5 l-31 -4 -6 -228 c-3 -141 -12 -265 -22 -327 -11 -61 -18 -170 -20 -280 -2 -125 -7 -198 -19 -241 -18 -71 -38 -250 -41 -381 -2 -103 -11 -122 -68 -143 -18 -7 -58 -26 -90 -42 -31 -16 -67 -28 -80 -26 -19 3 -22 9 -21 48 0 25 7 83 15 130 l15 85 46 5 c55 7 76 22 99 76 15 33 16 48 8 77 -12 44 -55 87 -87 87 -31 0 -70 44 -78 89 -10 52 -49 127 -104 196 -64 80 -87 101 -151 133 -38 19 -59 37 -71 62 -10 19 -30 46 -45 59 -16 13 -41 56 -58 100 l-31 76 -52 1 c-72 1 -82 14 -49 61 21 31 27 50 26 93 -1 30 3 81 8 113 14 88 48 100 113 39 31 -30 40 -46 40 -72 0 -33 -43 -155 -61 -175 -5 -5 -9 -20 -9 -33 0 -36 42 -26 55 13 6 17 24 48 42 70 26 31 32 47 31 81 0 23 2 46 6 52 3 5 3 45 -1 87 -6 72 -9 80 -47 122 -49 53 -75 68 -139 77 -60 9 -120 -21 -137 -68 -6 -17 -18 -44 -26 -59 -8 -16 -14 -41 -14 -55 0 -15 -12 -55 -26 -89 -27 -62 -27 -63 -10 -121 9 -32 16 -78 16 -103 0 -57 18 -91 52 -100 41 -11 88 -48 88 -70 0 -33 -80 -150 -168 -244 -95 -101 -102 -113 -138 -223 -25 -78 -36 -94 -106 -153 -83 -69 -61 -184 45 -226 40 -16 77 -56 77 -82 0 -9 20 -58 45 -109 77 -156 80 -205 22 -284 -28 -38 -42 -41 -92 -18 -55 25 -86 25 -116 1 -18 -14 -23 -27 -21 -54 4 -55 -35 -80 -153 -102 -99 -18 -173 -15 -186 7 -4 7 -1 25 8 41 33 64 -14 207 -68 207 -11 0 -40 9 -65 21 -25 11 -87 29 -137 40 -51 11 -104 26 -119 34 -15 7 -45 16 -68 20 -22 4 -50 15 -62 25 -23 19 -23 19 -4 52 10 18 25 60 32 93 55 252 55 254 10 355 -19 41 -44 116 -56 165 -11 50 -27 100 -35 111 -8 12 -49 36 -92 54 -93 38 -105 48 -153 122 l-37 56 17 66 c23 94 40 109 115 103 33 -3 71 -7 85 -9 27 -3 27 -7 14 94 -5 33 -2 56 10 79 21 42 20 52 -4 74 -18 16 -25 17 -60 6 -63 -19 -81 -4 -78 67 2 31 -1 67 -5 79 -6 17 -1 29 28 57 19 19 35 42 35 49 0 8 6 20 14 26 11 9 22 6 52 -14 51 -34 54 -40 54 -106 0 -59 16 -86 44 -76 20 8 65 80 89 142 29 77 97 212 113 226 23 19 42 -6 47 -64 6 -69 33 -171 59 -220 11 -22 23 -61 27 -86 5 -41 9 -46 31 -46 20 0 27 8 38 40 28 82 70 233 91 325 32 141 53 209 66 220 7 5 26 13 43 16 59 12 103 -67 122 -216 5 -36 18 -99 30 -140 13 -41 25 -88 29 -104 4 -16 14 -34 24 -40 29 -19 51 5 59 65 15 111 30 174 50 213 16 31 20 62 22 147 2 107 12 139 41 139 21 0 51 -45 64 -97 7 -26 21 -70 32 -97 10 -27 19 -68 19 -91 0 -74 48 -87 75 -21 11 25 15 80 16 195 1 123 4 161 14 165 17 6 29 -8 53 -65 11 -26 28 -49 38 -53 29 -11 68 25 77 72 9 47 32 71 49 54 17 -17 22 -125 9 -225 -11 -93 -9 -112 16 -121 36 -14 87 77 104 186 17 113 19 118 33 118 24 0 34 -23 51 -120 28 -166 28 -165 52 -168 17 -3 26 4 34 25 20 52 30 137 30 253 0 136 3 150 34 150 17 0 26 -9 38 -37z m2447 -319 c0 -35 -39 -84 -67 -84 -40 0 -22 58 32 102 24 20 35 15 35 -18z m-230 -8 c0 -16 -18 -31 -27 -22 -8 8 5 36 17 36 5 0 10 -6 10 -14z m-4322 -192 c4 -30 -41 -74 -76 -74 -41 0 -60 24 -35 44 10 8 29 24 43 35 31 26 64 23 68 -5z m-198 -65 c0 -25 -33 -22 -38 4 -2 12 3 17 17 17 15 0 21 -6 21 -21z m2852 -71 c3 -7 1 -32 -4 -57 -4 -26 -12 -143 -17 -261 -13 -282 -47 -706 -60 -750 -6 -19 -16 -95 -21 -170 -6 -74 -13 -145 -16 -157 -6 -31 -38 -47 -64 -33 -18 10 -20 20 -19 118 1 121 11 226 34 357 11 61 14 120 11 183 -5 88 -2 124 24 317 26 184 40 314 40 376 0 65 11 92 40 101 18 6 47 -7 52 -24z m-2917 -18 c20 -39 19 -83 -5 -129 -19 -38 -43 -56 -61 -45 -12 7 -12 146 1 178 13 36 45 34 65 -4z m164 21 c18 -11 8 -39 -29 -80 -25 -27 -33 -31 -45 -21 -21 18 -20 86 3 99 21 13 52 14 71 2z m-386 -128 c34 -38 58 -130 57 -210 -1 -43 1 -94 5 -113 5 -31 1 -40 -34 -77 -22 -24 -48 -43 -58 -43 -9 0 -36 18 -59 41 -47 46 -79 47 -90 3 -7 -27 1 -232 11 -279 5 -24 -2 -43 -38 -100 -25 -38 -61 -90 -82 -115 -20 -25 -68 -90 -105 -145 -135 -196 -150 -214 -204 -255 -31 -22 -63 -52 -72 -66 -27 -41 -95 -81 -169 -99 -97 -24 -119 -37 -170 -103 -67 -85 -101 -190 -91 -284 5 -56 3 -70 -23 -123 -15 -33 -51 -94 -80 -135 -59 -86 -81 -148 -81 -235 0 -56 3 -64 33 -91 56 -54 90 -71 168 -88 70 -16 82 -16 162 -1 95 18 180 45 301 96 59 24 82 30 95 22 21 -13 40 -68 40 -121 1 -26 10 -56 24 -80 13 -20 41 -71 62 -112 21 -41 48 -88 60 -105 47 -64 67 -115 56 -144 -6 -14 -13 -43 -17 -65 -4 -21 -20 -64 -35 -95 -16 -31 -29 -68 -29 -83 0 -14 -16 -70 -36 -125 -54 -151 -104 -309 -125 -403 -11 -47 -30 -123 -42 -170 -15 -58 -21 -109 -20 -160 2 -43 -3 -94 -11 -120 -8 -25 -22 -110 -32 -188 -15 -120 -16 -155 -6 -213 7 -38 12 -76 12 -84 0 -25 -38 -55 -68 -55 -48 0 -66 -30 -59 -99 5 -48 3 -63 -12 -82 -10 -13 -24 -40 -31 -60 -11 -30 -10 -40 4 -68 10 -19 31 -38 52 -47 19 -8 38 -22 41 -30 7 -20 -11 -103 -49 -218 -23 -71 -32 -120 -39 -225 -6 -98 -13 -139 -24 -150 -20 -21 -29 -9 -54 72 -11 38 -29 81 -40 95 -10 15 -31 56 -46 92 -61 145 -196 409 -239 465 -59 79 -155 193 -184 219 -13 11 -33 37 -45 56 -11 19 -48 62 -82 95 -108 107 -119 126 -129 229 -5 50 -10 129 -11 176 -4 130 -20 189 -89 331 -36 72 -68 149 -71 172 -20 124 -125 402 -182 483 -21 31 -51 74 -67 97 -16 23 -47 54 -70 68 -23 14 -62 50 -87 80 l-47 54 -1 255 c-1 267 11 467 35 535 7 22 16 65 19 95 13 112 66 353 87 393 17 33 46 19 98 -47 53 -67 71 -80 101 -71 23 8 25 53 7 167 -14 96 -4 128 41 128 16 0 33 -4 36 -10 3 -5 14 -10 23 -10 9 0 40 -16 69 -36 53 -36 78 -39 89 -9 4 8 -12 57 -33 108 -55 126 -65 164 -61 222 4 70 30 69 74 -4 41 -68 59 -79 86 -54 31 28 48 68 48 111 0 22 6 45 14 51 21 18 79 -16 146 -83 30 -31 62 -56 71 -56 43 0 47 44 19 194 -11 54 -11 86 -1 158 13 102 23 128 51 128 14 0 22 -13 34 -57 33 -119 107 -243 146 -243 32 0 43 26 36 88 -4 39 -2 73 9 107 8 28 15 69 15 93 0 51 27 186 43 222 18 36 40 35 61 -2 11 -18 40 -61 65 -95 25 -33 54 -75 63 -92 22 -39 55 -41 69 -4 5 14 13 113 18 220 8 200 16 232 52 218 8 -3 41 -44 73 -91 33 -47 71 -94 86 -104 41 -29 74 -34 94 -14 15 15 17 35 15 138 -1 67 3 162 9 211 7 50 12 96 12 103 0 6 8 12 19 12 25 0 34 -13 66 -104 16 -44 39 -91 51 -105 19 -22 25 -24 47 -14 20 10 28 25 41 82 9 38 16 77 16 86 0 30 52 115 70 115 4 0 14 -8 23 -17z m476 -89 c18 -13 36 -15 81 -10 68 8 71 4 56 -63 -15 -63 -22 -71 -62 -71 -48 0 -112 -35 -125 -68 -6 -15 -8 -55 -5 -90 4 -49 2 -69 -11 -89 -14 -21 -14 -26 -2 -34 8 -5 19 -9 26 -9 16 0 27 -40 14 -53 -15 -15 -101 4 -115 25 -8 14 -6 22 12 38 27 26 28 36 2 50 -12 6 -20 21 -20 35 0 14 -9 30 -20 37 -27 17 -26 32 16 118 20 41 45 94 56 117 20 42 53 83 66 83 4 0 18 -7 31 -16z m-244 -25 c10 -16 -45 -89 -73 -96 -27 -6 -42 9 -42 43 0 25 13 37 55 52 40 14 52 14 60 1z m72 -78 c-3 -16 -27 -62 -52 -104 -25 -41 -45 -78 -45 -83 0 -8 -36 -65 -104 -166 -28 -42 -51 -42 -67 -1 -15 41 40 137 149 258 15 17 42 52 59 78 38 54 69 64 60 18z m-27 -276 c0 -21 -52 -73 -57 -58 -6 18 26 73 42 73 8 0 15 -7 15 -15z m-328 -75 c41 -35 51 -54 103 -191 50 -132 59 -164 65 -248 4 -60 16 -124 32 -171 14 -41 35 -104 46 -140 11 -36 34 -94 51 -130 17 -36 31 -70 31 -77 0 -17 60 -162 117 -283 27 -58 65 -145 83 -195 19 -49 42 -100 51 -113 10 -12 20 -42 24 -65 4 -23 20 -72 36 -109 31 -72 37 -108 16 -108 -7 0 -37 11 -66 25 -41 20 -56 34 -68 63 -8 20 -24 56 -34 79 -10 23 -19 48 -19 56 0 14 -27 92 -73 207 -14 36 -38 99 -52 140 -15 41 -40 108 -56 149 -16 40 -29 79 -29 85 0 6 -7 24 -15 40 -17 33 -70 185 -80 231 -3 17 -14 48 -24 70 -10 22 -24 60 -30 85 -7 25 -28 83 -46 130 -18 47 -36 101 -40 120 -3 19 -19 60 -34 90 -40 77 -71 241 -55 284 9 23 16 20 66 -24z m2399 -37 c58 -26 98 -61 154 -134 74 -99 55 -122 -48 -59 -37 22 -69 40 -72 40 -3 0 -33 13 -68 29 -98 45 -128 52 -169 41 -43 -12 -106 -48 -168 -95 -81 -62 -90 -67 -106 -61 -20 8 -11 36 27 92 37 54 102 106 180 143 58 28 71 30 145 27 52 -2 97 -11 125 -23z m-2032 -59 c16 -20 21 -41 21 -84 0 -70 -11 -81 -104 -104 -81 -20 -88 -16 -118 61 -32 84 -27 90 78 128 88 31 98 31 123 -1z m222 -18 c102 -22 143 -47 162 -98 25 -67 39 -129 33 -144 -7 -18 -36 -6 -36 15 0 25 -20 41 -51 41 -15 0 -49 4 -76 10 -26 5 -70 12 -96 16 -71 8 -91 32 -84 100 3 29 8 58 12 64 9 14 57 12 136 -4z m1776 -97 c117 -55 166 -84 228 -138 80 -69 114 -148 86 -200 -12 -22 -174 -160 -222 -189 -44 -27 -159 -30 -225 -7 -23 8 -84 17 -135 21 -161 12 -277 82 -191 115 61 24 210 40 440 48 211 8 245 11 262 26 79 72 -80 142 -262 117 -46 -7 -109 -12 -140 -12 -89 0 -238 -29 -291 -56 -26 -14 -52 -22 -57 -19 -19 12 -10 65 13 88 63 59 261 210 322 245 34 20 60 14 172 -39z m-2428 -81 c14 -25 13 -28 -48 -99 -34 -41 -88 -105 -119 -143 -87 -106 -144 -163 -149 -148 -6 16 37 90 71 121 14 14 26 28 26 33 0 29 177 271 194 265 6 -2 17 -15 25 -29z m887 -164 c13 -31 13 -39 2 -50 -12 -12 -22 -12 -68 2 -81 24 -364 24 -414 0 -43 -20 -69 -18 -74 7 -6 29 34 34 263 36 209 1 221 2 234 21 20 30 40 24 57 -16z m1978 -39 c8 -30 -18 -85 -39 -85 -35 0 -50 101 -18 119 24 13 49 -2 57 -34z m-2788 -11 c7 -29 -2 -44 -26 -44 -24 0 -38 44 -20 65 15 19 39 8 46 -21z m1787 -33 c6 -49 5 -66 -5 -73 -21 -13 -27 -10 -48 25 -29 47 -10 122 29 115 12 -2 18 -21 24 -67z m-1023 -23 c67 -20 71 -36 44 -142 -21 -84 -95 -256 -114 -266 -8 -4 -51 -11 -96 -15 -76 -6 -82 -5 -107 17 -24 21 -27 34 -38 142 -14 143 -7 255 17 273 19 14 238 7 294 -9z m-389 -8 c17 -10 19 -22 19 -130 0 -66 -4 -120 -8 -120 -4 0 -28 51 -53 114 -49 122 -49 146 -3 146 14 0 34 -5 45 -10z m-517 -77 c18 -25 46 -71 62 -102 16 -30 39 -72 52 -93 12 -21 22 -48 22 -61 0 -54 -33 -68 -260 -111 -69 -13 -138 -29 -154 -35 -61 -24 -74 11 -28 75 15 21 43 66 61 99 19 33 46 76 61 95 15 19 35 51 45 70 26 51 75 110 91 110 7 0 29 -21 48 -47z m206 7 c5 -10 10 -31 10 -46 0 -30 2 -36 59 -209 28 -86 36 -125 30 -137 -10 -19 -56 -35 -67 -23 -4 4 -7 46 -7 93 0 72 -4 92 -21 117 -27 38 -56 106 -74 169 -12 45 -12 50 5 62 21 15 49 4 65 -26z m218 -94 c-2 -15 -6 -15 -21 -4 -12 9 -16 20 -11 32 6 15 9 16 21 3 8 -8 13 -22 11 -31z m3178 -20 c36 -39 58 -77 83 -142 18 -49 42 -109 54 -134 34 -75 83 -280 73 -305 -3 -8 -26 -23 -51 -34 -26 -11 -60 -32 -77 -46 -16 -14 -34 -25 -39 -25 -6 0 -27 -14 -47 -31 -43 -36 -184 -100 -261 -120 -51 -13 -54 -13 -72 9 -10 13 -27 47 -38 76 -10 29 -41 93 -66 142 -89 167 -105 203 -126 281 -31 111 -35 136 -31 155 6 27 251 145 447 215 17 6 46 11 66 12 32 1 43 -6 85 -53z m322 -3 c-2 -21 -9 -29 -27 -31 -32 -5 -46 11 -32 37 7 13 22 21 37 21 22 0 25 -4 22 -27z m-4218 -23 c-14 -33 -40 -41 -40 -11 0 17 40 54 49 45 2 -2 -2 -17 -9 -34z m5395 -56 c8 -20 26 -49 40 -66 30 -36 32 -64 4 -78 -68 -37 -146 103 -89 160 11 11 22 20 25 20 3 0 11 -16 20 -36z m-2694 -4 c28 -15 27 -76 -2 -85 -11 -4 -21 -5 -22 -3 -2 1 -7 17 -13 33 -7 17 -15 38 -19 48 -5 13 -2 17 15 17 12 0 30 -5 41 -10z m1833 -23 c7 -11 6 -26 -7 -52 -20 -42 -34 -39 -43 10 -10 55 24 84 50 42z m-4633 -7 c23 -13 25 -47 3 -78 -19 -28 -41 -28 -71 0 -29 27 -29 52 -1 72 26 19 42 20 69 6z m2913 1 c3 -5 22 -12 41 -15 45 -9 48 -42 6 -71 -17 -10 -34 -29 -40 -41 -5 -13 -23 -25 -40 -29 -19 -4 -31 -13 -31 -23 0 -8 -7 -24 -17 -34 -9 -10 -19 -35 -22 -56 -5 -31 -10 -37 -31 -37 -31 0 -39 31 -13 51 17 14 17 14 -1 29 -11 8 -28 15 -39 15 -21 0 -107 67 -107 83 0 6 -7 19 -16 28 -16 17 -15 19 10 29 14 5 31 21 36 35 20 54 65 42 54 -14 -6 -28 -10 -32 -30 -27 -18 5 -24 2 -24 -10 0 -12 5 -15 23 -9 12 4 38 9 58 12 40 5 51 -4 53 -46 1 -19 7 -27 25 -29 34 -5 43 9 26 42 -20 38 -20 41 17 87 31 38 51 48 62 30z m1926 -81 c24 -13 41 -61 28 -83 -13 -25 -22 -21 -53 23 -37 54 -24 86 25 60z m-4942 -44 c49 -32 78 -63 97 -109 26 -63 -2 -77 -51 -26 -55 58 -105 73 -144 41 l-21 -17 20 -27 c12 -14 21 -29 21 -32 0 -3 -18 -9 -40 -12 -22 -4 -43 -10 -45 -15 -10 -16 48 -49 86 -49 69 0 127 -85 94 -137 -21 -32 -30 -29 -57 19 -30 53 -61 75 -120 83 -39 6 -49 4 -67 -14 -29 -29 -18 -48 45 -78 97 -46 125 -88 78 -119 -18 -12 -26 -11 -65 10 -24 14 -64 35 -88 46 -24 12 -55 34 -68 49 -21 23 -23 33 -20 96 3 64 9 79 61 170 69 119 64 113 112 130 62 22 129 19 172 -9z m5500 -42 c2 -22 -2 -53 -9 -70 -12 -29 -12 -28 -21 31 -4 33 -6 66 -3 73 10 26 30 5 33 -34z m-2398 16 c0 -5 -7 -10 -15 -10 -8 0 -15 5 -15 10 0 6 7 10 15 10 8 0 15 -4 15 -10z m-2430 -78 c13 -47 13 -72 0 -72 -13 0 -37 38 -45 72 -15 59 28 59 45 0z m4053 -7 c16 -43 20 -95 28 -365 10 -401 14 -446 40 -515 20 -53 20 -59 6 -93 -9 -21 -19 -47 -22 -59 -4 -13 -13 -30 -22 -38 -25 -26 -43 -1 -43 62 0 30 -5 64 -11 75 -7 14 -12 121 -13 312 -1 212 -5 297 -14 314 -15 26 -53 29 -73 6 -11 -14 -14 -13 -30 7 -16 21 -17 21 -23 3 -3 -10 -5 -81 -3 -156 1 -94 -2 -141 -10 -149 -20 -20 -33 1 -33 57 0 34 -4 54 -11 54 -8 0 -10 -18 -6 -59 5 -47 3 -62 -9 -72 -13 -10 -14 -24 -9 -68 4 -31 11 -103 16 -161 4 -58 13 -130 19 -160 7 -30 15 -82 19 -115 l7 -60 7 54 c11 91 24 79 32 -29 4 -56 3 -106 -2 -110 -15 -13 -91 1 -98 18 -3 9 -6 98 -6 197 -1 227 -22 488 -50 607 -13 56 -12 57 12 81 21 19 27 37 34 98 4 40 7 91 7 111 -1 30 4 41 23 54 14 9 25 20 25 24 0 5 5 21 10 35 8 22 13 25 25 15 10 -9 12 -28 8 -81 -5 -64 -4 -72 18 -95 13 -14 36 -32 51 -40 25 -13 28 -12 38 5 5 11 10 28 10 38 0 37 -22 94 -38 100 -24 9 -32 23 -32 60 0 46 9 64 44 79 46 20 59 14 79 -41z m-3273 37 c0 -13 -12 -22 -22 -16 -10 6 -1 24 13 24 5 0 9 -4 9 -8z m3801 -118 c4 -54 7 -166 8 -249 2 -193 9 -258 28 -250 8 3 22 -4 31 -15 17 -20 18 -19 50 20 l34 41 -16 46 c-20 59 -20 107 0 123 11 10 14 23 9 51 -4 23 -1 55 10 85 11 33 14 63 10 98 -7 56 6 106 28 106 19 0 42 -108 33 -156 -4 -20 -14 -47 -23 -60 -8 -13 -12 -32 -8 -43 3 -11 -1 -36 -9 -55 -12 -28 -14 -60 -10 -134 6 -104 -11 -198 -41 -228 -8 -8 -15 -28 -15 -43 0 -49 -21 -65 -88 -67 -48 -2 -64 1 -81 18 -24 22 -24 36 2 52 13 8 25 7 48 -6 25 -15 31 -15 35 -3 12 30 0 49 -31 50 -41 0 -53 36 -37 113 12 60 9 181 -9 322 -9 76 -4 262 8 283 3 4 10 6 16 4 8 -2 14 -42 18 -103z m-2059 26 c33 -29 66 -74 112 -159 36 -65 66 -122 66 -126 0 -4 8 -19 18 -33 11 -15 24 -40 29 -57 6 -16 36 -70 67 -120 31 -49 55 -96 54 -103 -2 -8 -19 -23 -38 -33 -19 -11 -47 -29 -61 -42 -14 -12 -52 -40 -85 -62 -32 -22 -81 -57 -107 -77 -27 -21 -67 -42 -90 -48 -23 -5 -63 -17 -89 -26 -26 -9 -52 -13 -57 -10 -5 4 -30 1 -55 -6 -60 -16 -53 -22 -194 182 -33 47 -82 112 -110 145 -28 32 -55 75 -60 94 -6 20 -16 51 -23 68 -12 30 -11 35 13 60 14 16 29 39 34 53 16 47 174 173 242 195 26 8 171 95 210 126 38 29 71 24 124 -21z m1858 -17 c0 -37 -9 -63 -21 -63 -11 0 -12 44 -3 90 8 39 24 21 24 -27z m-2608 -53 c15 -11 32 -42 42 -77 10 -32 22 -68 27 -81 10 -26 5 -42 -16 -42 -17 0 -75 73 -98 123 -37 81 -12 123 45 77z m2504 -124 c-3 -28 -9 -68 -12 -89 -4 -27 -2 -43 9 -55 8 -9 17 -28 19 -42 6 -49 22 -24 25 40 4 86 12 130 23 130 12 0 12 3 14 -150 1 -69 5 -134 9 -145 5 -13 2 -27 -7 -40 -14 -20 -15 -20 -51 -1 -20 11 -40 27 -44 35 -21 41 -37 346 -19 368 5 6 16 9 25 6 12 -5 14 -16 9 -57z m-3531 16 c0 -18 -20 -15 -23 4 -3 10 1 15 10 12 7 -3 13 -10 13 -16z m990 -68 c88 -174 108 -227 110 -299 1 -38 9 -95 19 -125 39 -121 42 -147 20 -171 -17 -20 -26 -21 -110 -17 -80 5 -99 9 -150 38 -33 19 -91 66 -130 105 -56 57 -84 77 -139 99 -80 32 -139 75 -161 118 -9 17 -20 59 -25 95 -5 38 -18 76 -31 93 -18 25 -20 34 -10 54 14 30 22 32 257 45 99 6 203 17 230 24 28 8 59 11 70 7 11 -3 33 -33 50 -66z m2729 -76 c18 -280 19 -315 6 -323 -7 -4 -22 3 -37 18 l-26 25 16 94 c20 121 27 208 18 233 -9 21 -3 55 9 55 4 0 10 -46 14 -102z m-4913 -7 c24 -16 60 -43 79 -61 19 -18 45 -39 58 -47 23 -16 30 -47 12 -58 -5 -3 -23 2 -41 12 -17 10 -51 29 -76 43 -51 28 -109 100 -100 124 9 22 16 20 68 -13z m-511 -36 c0 -8 -4 -15 -9 -15 -13 0 -22 16 -14 24 11 11 23 6 23 -9z m4960 -101 c0 -11 -6 -29 -14 -39 -12 -17 -14 -16 -20 18 -4 20 -4 48 0 63 l7 27 13 -24 c7 -13 13 -33 14 -45z m-976 -34 c40 -42 40 -42 94 -36 29 4 80 14 112 23 109 30 114 0 10 -65 -86 -54 -100 -70 -100 -114 0 -59 -28 -81 -93 -73 -44 5 -59 3 -100 -19 -26 -14 -53 -26 -58 -26 -6 0 -40 -18 -76 -40 -37 -22 -74 -40 -83 -40 -9 0 -48 -22 -87 -50 -112 -79 -160 -62 -57 20 67 53 88 68 217 150 59 38 102 73 108 87 5 13 20 28 34 33 38 14 41 36 15 110 -38 110 -15 124 64 40z m-3039 30 c-10 -11 -28 -20 -39 -20 -20 0 -20 1 4 20 34 27 59 27 35 0z m1160 -67 c36 -40 33 -83 -6 -63 -46 25 -65 -30 -34 -104 19 -46 38 -42 46 8 7 42 21 56 58 56 65 0 214 -71 241 -116 25 -39 27 -112 4 -121 -18 -7 -34 12 -34 43 0 23 -38 85 -56 91 -6 2 -16 -7 -22 -21 -6 -14 -26 -29 -46 -36 -20 -6 -36 -16 -36 -21 0 -20 -29 -8 -32 14 -4 28 -38 34 -73 11 -18 -12 -24 -22 -20 -35 8 -23 1 -24 -30 -3 -14 9 -25 24 -25 33 0 9 -7 29 -15 45 -8 15 -15 42 -15 58 0 16 -12 45 -26 64 -19 24 -23 38 -16 47 5 6 11 21 13 31 4 17 53 43 86 45 7 1 24 -11 38 -26z m2537 -35 c26 -20 37 -82 44 -234 5 -108 4 -143 -6 -149 -16 -10 -32 14 -25 40 5 24 -42 173 -63 198 -19 21 -79 23 -127 2 -42 -17 -52 -37 -36 -72 11 -23 9 -29 -19 -58 -39 -40 -36 -64 8 -87 46 -22 46 -22 28 -57 -9 -16 -16 -34 -16 -39 0 -22 31 -20 59 3 16 14 36 25 45 25 20 0 36 -31 36 -72 0 -18 12 -73 27 -122 24 -75 34 -93 65 -118 37 -29 38 -32 38 -93 0 -72 -11 -86 -43 -57 -12 11 -36 27 -54 36 -17 9 -34 25 -38 35 -3 11 -24 42 -46 68 -22 26 -44 66 -50 88 -6 22 -19 51 -29 65 -10 14 -21 40 -25 59 -4 19 -20 54 -36 79 -16 25 -29 49 -29 54 0 4 -12 24 -26 45 -29 44 -74 138 -74 156 0 7 12 25 28 39 28 26 227 161 252 171 27 10 96 7 112 -5z m-1683 -105 c28 -35 36 -70 21 -88 -20 -24 -30 -18 -50 28 -36 78 -16 118 29 60z m1995 -108 c3 -85 9 -130 21 -153 14 -26 16 -47 10 -98 -7 -71 -18 -86 -36 -52 -12 22 -30 397 -21 426 11 34 21 -13 26 -123z m-3386 23 c7 -7 12 -20 12 -29 0 -19 -64 -79 -85 -79 -55 0 -60 45 -10 89 38 33 63 39 83 19z m318 -64 c-5 -13 -10 -14 -18 -6 -6 6 -8 18 -4 28 5 13 10 14 18 6 6 -6 8 -18 4 -28z m102 -23 c-4 -22 -55 -48 -67 -36 -7 7 -2 23 16 49 25 35 28 36 40 19 8 -10 12 -24 11 -32z m1097 -8 c30 -45 31 -55 5 -78 -11 -10 -22 -27 -26 -39 -13 -45 -189 -305 -209 -310 -12 -3 -28 -20 -36 -38 -10 -23 -25 -36 -49 -44 -27 -9 -36 -18 -41 -41 -9 -45 -17 -53 -52 -53 -41 0 -54 9 -58 40 -3 17 -11 26 -27 28 -33 5 -69 84 -55 121 6 18 6 32 -1 43 -8 13 -5 22 12 41 33 35 29 51 -13 44 l-35 -6 0 54 c0 48 2 54 23 57 14 2 23 11 25 25 5 31 93 103 126 103 15 0 40 -10 56 -22 l29 -21 43 20 c24 12 69 29 102 39 32 10 74 31 94 46 19 15 41 28 48 28 7 0 25 -17 39 -37z m-1308 2 c25 -17 30 -34 11 -39 -7 -2 -44 -9 -83 -16 -67 -12 -114 -31 -162 -66 -33 -24 -36 -1 -4 44 20 27 51 50 93 71 67 33 102 34 145 6z m411 -58 c2 -11 -5 -25 -17 -33 -12 -9 -21 -24 -21 -35 0 -27 -18 -24 -22 4 -3 19 -8 22 -47 20 -24 -1 -46 -4 -48 -7 -3 -3 4 -17 16 -32 26 -33 27 -44 1 -44 -11 0 -35 16 -53 37 l-34 36 21 34 c20 33 23 34 71 29 28 -3 57 -1 65 4 23 16 64 7 68 -13z m359 -13 c8 -21 -13 -42 -28 -27 -13 13 -5 43 11 43 6 0 13 -7 17 -16z m1377 -20 c14 -5 96 -116 96 -129 0 -3 27 -51 60 -106 81 -135 116 -206 124 -254 4 -22 22 -62 40 -90 103 -159 122 -205 81 -205 -8 0 -72 27 -141 60 -69 33 -128 60 -132 60 -9 0 -136 76 -229 137 -104 69 -281 227 -289 259 -5 17 2 36 21 64 35 50 100 110 120 110 9 0 48 20 88 44 87 53 124 64 161 50z m-2051 -46 c22 -46 9 -55 -61 -40 -32 7 -74 12 -93 12 -37 0 -152 -44 -157 -60 -5 -15 -32 -12 -32 4 0 16 79 85 118 102 15 7 68 13 118 13 l92 1 15 -32z m1446 -118 c93 -83 114 -107 143 -159 12 -21 25 -31 41 -31 26 0 67 -33 67 -55 0 -8 -9 -19 -20 -25 -22 -12 -28 -50 -7 -50 7 0 18 9 25 20 7 11 22 20 33 20 27 0 89 -62 89 -89 0 -31 -30 -39 -51 -13 -24 30 -37 28 -55 -11 -13 -26 -25 -36 -60 -45 l-43 -12 19 -34 c36 -59 2 -86 -87 -69 -38 6 -48 12 -48 28 0 13 8 21 23 23 29 4 28 14 -8 52 -20 21 -37 30 -52 28 -21 -3 -23 -9 -28 -78 -5 -73 -6 -75 -32 -78 -22 -3 -28 1 -28 16 0 38 -59 43 -120 11 l-40 -21 -31 27 -32 26 -21 -21 c-34 -31 -73 -26 -94 11 -9 17 -27 44 -39 59 -30 36 -29 50 5 82 45 43 78 82 92 108 7 14 30 48 51 75 20 28 48 71 62 96 49 93 119 189 138 189 11 0 59 -36 108 -80z m-1181 39 c2 -21 -2 -28 -23 -33 -33 -8 -45 -1 -45 28 0 30 9 38 40 34 19 -2 26 -10 28 -29z m-330 -15 c28 -20 28 -34 0 -34 -29 -1 -97 -31 -155 -70 -54 -37 -87 -36 -91 1 -9 75 176 152 246 103z m2482 -64 c34 -43 152 -269 171 -329 7 -20 19 -46 27 -59 8 -12 12 -26 8 -30 -11 -11 -60 21 -72 48 -33 72 -81 159 -106 194 -15 21 -28 46 -28 54 0 9 -13 39 -30 69 -52 91 -30 129 30 53z m-2294 9 c10 -17 -13 -36 -27 -22 -12 12 -4 33 11 33 5 0 12 -5 16 -11z m-153 -48 c34 -13 97 -70 97 -87 0 -19 -25 -18 -56 2 -37 25 -110 14 -167 -24 -25 -18 -50 -32 -55 -32 -17 0 -33 27 -26 44 9 23 93 82 134 94 46 13 45 13 73 3z m-393 -50 c0 -26 -21 -40 -45 -30 -39 15 -67 9 -93 -21 -30 -35 -35 -36 -56 -14 -21 21 -20 40 4 64 17 17 33 20 105 20 76 0 85 -2 85 -19z m131 -108 c28 -26 65 -52 83 -58 29 -9 31 -14 37 -70 4 -33 7 -132 8 -220 1 -145 12 -261 52 -538 13 -92 7 -127 -22 -127 -14 0 -25 12 -36 38 -31 70 -67 430 -64 637 2 141 -13 230 -39 230 -13 0 -14 -27 -12 -190 1 -104 9 -237 17 -295 44 -326 52 -439 34 -451 -24 -15 -67 -10 -73 9 -23 80 -31 206 -31 527 -1 193 -2 360 -3 373 -2 24 -37 32 -44 10 -7 -25 -3 -626 6 -770 7 -115 6 -151 -4 -163 -15 -18 -54 -20 -68 -2 -10 12 -37 429 -35 548 1 36 8 87 16 115 18 57 31 250 18 258 -20 12 -34 -30 -49 -141 -15 -111 -18 -285 -12 -620 2 -148 -2 -163 -40 -163 -16 0 -31 4 -34 8 -7 11 -22 340 -19 422 5 157 10 221 27 310 18 97 17 173 -3 193 -6 6 -13 8 -16 5 -4 -3 -9 -64 -12 -134 -4 -85 -11 -136 -20 -151 -12 -18 -14 -75 -10 -322 4 -284 4 -301 -14 -317 -16 -15 -25 -16 -59 -5 -47 14 -52 35 -20 86 20 33 26 71 50 355 5 63 10 135 9 160 0 25 0 124 0 221 0 225 -8 214 151 205 126 -8 138 -4 154 52 4 12 12 22 17 22 5 0 33 -21 60 -47z m-434 -71 c8 -5 11 -50 8 -162 -5 -216 -23 -511 -36 -600 -15 -108 -46 -149 -71 -95 -6 14 -20 25 -31 25 -16 0 -18 -5 -13 -32 18 -86 18 -98 5 -99 -67 -5 -206 33 -216 58 -3 8 4 52 16 98 13 46 27 137 32 202 11 148 34 295 53 350 8 22 20 68 25 102 5 33 19 81 30 106 16 36 25 45 45 45 14 0 29 -8 34 -17 11 -22 -11 -261 -26 -289 -6 -12 -18 -81 -27 -155 -24 -199 -53 -301 -107 -370 -46 -60 -33 -100 20 -63 36 25 102 171 102 225 0 15 7 46 15 69 8 23 15 76 15 117 0 52 7 96 24 147 16 48 28 113 34 189 7 90 13 121 27 137 20 22 24 23 42 12z m-267 -51 c0 -55 -27 -201 -49 -269 -11 -31 -24 -106 -31 -167 -23 -220 -30 -263 -50 -319 -24 -63 -45 -88 -69 -84 -23 5 -25 42 -6 101 10 29 21 90 25 137 20 203 33 288 52 330 24 53 42 116 64 220 19 88 19 90 45 90 15 0 19 -7 19 -39z m-122 -29 c3 -35 -25 -142 -58 -222 -10 -25 -21 -72 -25 -105 -28 -258 -55 -403 -81 -442 -15 -25 -64 -32 -64 -10 0 6 7 41 15 77 22 100 43 217 60 335 8 58 18 111 21 117 3 5 14 64 24 130 20 131 35 161 79 156 21 -2 27 -9 29 -36z m1349 -28 c15 -56 30 -153 43 -269 13 -119 40 -318 45 -333 2 -7 0 -24 -5 -38 -7 -19 -16 -25 -33 -22 -19 3 -25 15 -44 98 -12 52 -28 117 -34 144 -16 68 -26 425 -13 460 11 29 28 12 41 -40z m2774 7 c13 -44 8 -206 -6 -206 -5 0 -13 38 -16 85 -3 47 -10 104 -14 128 -7 37 -5 42 9 36 9 -3 21 -22 27 -43z m-2869 -131 c7 -129 18 -223 40 -320 5 -25 13 -74 18 -110 5 -36 13 -80 19 -98 13 -42 5 -62 -25 -62 -18 0 -25 7 -30 28 -3 15 -9 41 -14 57 -5 17 -11 66 -14 111 -3 44 -10 94 -16 110 -7 16 -13 94 -15 174 -2 89 -8 156 -16 173 -16 34 2 80 29 75 15 -3 18 -21 24 -138z m1783 111 c0 -8 -4 -16 -10 -18 -16 -5 -38 14 -30 26 9 16 40 9 40 -8z m-1993 -73 c5 -29 11 -96 13 -148 2 -52 11 -129 20 -170 9 -41 21 -109 25 -150 5 -41 18 -104 30 -139 17 -50 19 -70 11 -88 -25 -54 -101 -8 -101 61 0 23 -5 59 -10 81 -8 36 -33 314 -33 375 0 14 1 48 4 75 2 28 0 69 -5 91 -6 33 -4 45 10 58 21 22 25 17 36 -46z m1901 55 c14 -4 16 -8 6 -19 -13 -16 -45 -19 -54 -4 -10 16 -23 12 -49 -17 -21 -22 -27 -24 -40 -14 -14 12 -14 15 0 36 13 20 24 24 67 23 29 0 60 -2 70 -5z m1361 -39 c9 -24 7 -82 -3 -88 -12 -8 -45 79 -36 93 9 16 32 13 39 -5z m-3143 -26 c3 -90 35 -384 45 -408 7 -16 24 -152 27 -210 2 -25 -2 -35 -15 -38 -27 -5 -52 58 -83 208 -25 119 -28 155 -27 298 1 89 4 167 7 172 3 6 15 10 26 10 15 0 19 -7 20 -32z m882 14 c20 -22 13 -32 -19 -32 -27 0 -36 12 -28 34 8 21 27 20 47 -2z m1991 -48 c3 -9 6 -75 6 -147 0 -136 8 -251 35 -512 9 -82 20 -243 25 -357 6 -113 14 -227 19 -253 8 -43 7 -66 -5 -104 -4 -12 -8 -12 -22 3 -11 11 -18 36 -20 74 -15 301 -30 440 -51 480 -4 9 -9 60 -9 112 -1 52 -9 160 -18 240 -17 155 -13 342 12 458 5 26 19 29 28 6z m-1572 -31 c16 -14 25 -43 13 -43 -16 0 -93 45 -89 52 9 14 57 9 76 -9z m1452 -9 c24 -9 20 -75 -9 -132 l-25 -50 -47 6 c-60 6 -123 37 -123 60 0 21 87 108 115 115 30 7 71 8 89 1z m-1264 -28 c0 -20 -19 -32 -76 -46 -61 -16 -90 -9 -75 17 17 31 151 57 151 29z m-625 -72 c39 -8 124 -20 190 -26 112 -9 148 -19 132 -34 -16 -16 -359 5 -424 27 -50 16 -44 66 7 55 14 -3 57 -13 95 -22z m2305 -44 c0 -41 10 -113 39 -300 18 -109 15 -149 -11 -159 -13 -5 -28 -5 -34 0 -7 6 -15 57 -18 122 -4 62 -11 164 -18 228 -9 103 -9 119 7 148 21 42 35 27 35 -39z m-821 28 c9 -15 12 -30 9 -34 -12 -12 -58 25 -58 47 0 29 30 21 49 -13z m132 -62 c12 -26 1 -77 -18 -83 -12 -4 -46 85 -37 98 11 18 45 8 55 -15z m178 -115 c6 -10 7 -35 4 -56 l-6 -38 -18 34 c-10 19 -18 44 -19 57 0 27 25 30 39 3z m67 -128 c-3 -8 3 -52 14 -98 34 -144 36 -324 4 -292 -19 19 -47 361 -35 426 l4 25 9 -24 c5 -13 6 -30 4 -37z m-432 25 c22 -83 33 -138 28 -143 -15 -15 -60 -3 -84 23 -45 47 -49 64 -26 100 15 24 27 32 49 32 16 0 31 -6 33 -12z m-1544 -26 c33 -16 34 -17 10 -20 -13 -2 -26 1 -28 7 -2 6 -17 11 -32 11 -30 0 -49 15 -28 23 15 5 30 1 78 -21z m6575 -7 c0 -33 -21 -41 -38 -14 -14 22 -1 51 20 47 13 -2 18 -13 18 -33z m-6067 0 c43 -5 65 -12 69 -22 3 -8 1 -18 -5 -22 -17 -10 -304 -4 -335 8 -16 6 -52 11 -80 12 -29 1 -63 4 -77 9 l-25 7 30 7 c17 4 33 8 37 9 18 4 329 -3 386 -8z m1411 -112 c1 -28 -3 -54 -8 -57 -12 -8 -21 88 -14 143 l7 46 7 -40 c5 -22 8 -63 8 -92z m4566 117 c8 -13 -14 -42 -26 -34 -5 3 -9 14 -9 25 0 20 24 26 35 9z m-10789 -105 c6 -14 -21 -98 -38 -121 -4 -6 -12 -41 -17 -78 -10 -67 -25 -101 -42 -90 -14 8 -11 67 5 90 8 11 19 57 24 102 5 45 15 89 22 97 16 19 39 19 46 0z m10653 -22 c0 -42 -15 -122 -23 -130 -14 -14 -26 22 -26 78 0 54 11 79 37 79 8 0 13 -11 12 -27z m-4744 -44 c0 -28 -4 -35 -22 -37 -18 -3 -23 2 -23 18 0 29 19 62 33 57 7 -2 12 -19 12 -38z m-5846 -84 c-11 -54 -27 -110 -35 -124 -8 -15 -18 -44 -24 -66 -8 -37 -9 -36 -6 20 8 154 50 305 77 278 5 -5 -1 -53 -12 -108z m2051 94 c0 -5 -7 -9 -15 -9 -15 0 -20 12 -9 23 8 8 24 -1 24 -14z m-1927 -43 c3 -8 -7 -79 -23 -158 -41 -203 -50 -302 -44 -446 5 -98 11 -136 27 -169 20 -42 17 -78 -6 -71 -6 2 -24 28 -39 58 -23 45 -27 69 -28 133 0 43 -5 98 -11 122 -18 71 2 277 41 415 18 63 34 118 37 123 7 12 41 8 46 -7z m5580 -31 c25 -25 8 -53 -48 -80 -30 -14 -64 -25 -77 -25 -13 0 -43 -10 -68 -21 -77 -35 -162 -59 -238 -66 -40 -3 -80 -12 -90 -19 -16 -13 -16 -15 2 -29 28 -21 127 -4 234 41 18 8 41 14 51 14 16 0 79 25 121 49 15 9 88 30 172 51 25 7 51 10 56 6 5 -3 15 -26 22 -51 11 -41 11 -48 -5 -65 -10 -11 -26 -20 -35 -20 -9 0 -25 -7 -36 -15 -10 -8 -29 -15 -41 -15 -12 0 -37 -6 -55 -14 -18 -8 -69 -22 -113 -31 -44 -9 -102 -23 -130 -31 -60 -18 -237 -33 -264 -22 -20 7 -29 33 -37 114 -12 115 -14 109 31 110 77 3 288 50 323 72 27 17 158 60 189 61 12 1 28 -6 36 -14z m481 -86 c3 -17 6 -73 6 -125 0 -51 4 -95 9 -99 10 -5 12 -20 34 -240 16 -163 17 -407 1 -412 -7 -2 -19 3 -28 12 -14 14 -16 54 -16 318 0 229 -4 319 -15 372 -16 77 -20 205 -6 205 5 0 11 -14 15 -31z m578 -133 c4 -55 12 -134 18 -174 19 -140 9 -245 -20 -216 -10 10 -20 80 -40 299 -5 55 -13 121 -16 147 -4 26 -3 59 0 73 l7 27 21 -27 c17 -21 23 -49 30 -129z m-6467 35 c19 -43 15 -71 -9 -71 -29 0 -36 -38 -36 -198 0 -168 -5 -188 -47 -180 -17 3 -18 16 -15 168 2 91 7 183 13 205 6 22 15 57 20 78 8 29 15 37 33 37 17 0 27 -10 41 -39z m10060 -41 c0 -27 -22 -39 -31 -16 -8 22 3 49 19 43 6 -2 12 -14 12 -27z m-5395 -20 c0 -21 -15 -27 -25 -10 -7 12 2 30 16 30 5 0 9 -9 9 -20z m918 -12 c21 -21 15 -76 -10 -92 -58 -36 -302 -84 -542 -107 -111 -10 -121 -10 -133 7 -7 10 -13 24 -13 31 0 20 64 44 140 54 104 13 252 39 269 48 9 4 44 14 78 21 33 7 74 21 90 31 32 21 103 25 121 7z m-5527 -141 c11 -97 2 -147 -25 -147 -21 0 -26 23 -26 125 0 104 14 163 31 132 6 -9 15 -59 20 -110z m10007 50 c2 -10 -3 -17 -12 -17 -9 0 -16 2 -16 4 0 2 -3 12 -6 21 -5 13 -2 16 12 13 10 -2 20 -11 22 -21z m-5550 -9 c-6 -18 -28 -21 -28 -4 0 9 7 16 16 16 9 0 14 -5 12 -12z m173 -8 c11 0 19 -4 19 -9 0 -14 -89 -26 -102 -13 -18 18 2 34 34 28 17 -3 39 -6 49 -6z m5260 -107 c3 -60 -6 -77 -27 -49 -17 24 -18 79 -3 108 16 29 26 8 30 -59z m129 -3 c12 -23 6 -40 -15 -40 -16 0 -29 35 -20 50 10 16 23 12 35 -10z m-8068 -75 c15 -27 33 -68 38 -90 6 -22 19 -58 30 -81 11 -23 23 -55 26 -72 6 -29 4 -32 -18 -32 -15 0 -41 16 -69 43 -84 81 -175 147 -203 147 -76 1 -47 54 56 105 40 19 82 34 93 33 12 -2 30 -22 47 -53z m3800 -115 c1 -63 -2 -125 -6 -137 -10 -30 -32 -29 -52 2 -14 22 -15 34 -5 82 6 31 11 81 11 110 0 31 7 68 17 86 l16 32 9 -30 c5 -16 9 -82 10 -145z m-337 129 c22 -27 26 -39 23 -88 -3 -53 -4 -56 -28 -53 -101 13 -129 13 -158 -2 -17 -9 -45 -16 -62 -16 -23 0 -39 -9 -58 -30 -15 -17 -36 -30 -50 -30 -14 0 -26 -8 -30 -21 -7 -19 -10 -16 -25 23 -9 24 -17 60 -17 80 0 30 5 39 27 50 15 7 34 25 42 40 34 60 67 73 194 76 l115 2 27 -31z m4385 -45 c0 -31 -23 -28 -28 4 -2 15 2 22 12 22 11 0 16 -9 16 -26z m-9745 -13 c0 -8 -12 -23 -28 -34 -21 -16 -30 -18 -39 -9 -9 9 -6 17 13 36 26 26 54 30 54 7z m9859 -62 c-17 -29 -52 5 -39 39 6 15 8 15 26 -7 10 -12 16 -27 13 -32z m-6736 4 c3 -23 -12 -38 -48 -46 -30 -7 -56 6 -45 23 10 17 68 51 80 47 6 -2 11 -13 13 -24z m-1336 -98 c96 -70 160 -134 156 -159 -2 -17 -12 -22 -53 -26 -27 -3 -56 -9 -63 -13 -22 -14 -50 3 -86 53 -31 43 -41 50 -91 61 -31 7 -63 18 -72 24 -16 12 -16 14 1 39 23 37 74 66 114 66 23 0 51 -13 94 -45z m3788 16 c0 -35 -12 -51 -36 -51 -46 0 -23 69 24 70 6 0 12 -9 12 -19z m-274 -1 c30 -12 85 -55 98 -78 7 -13 2 -14 -41 -8 -56 7 -194 -17 -231 -41 -13 -8 -33 -13 -44 -11 -19 3 -16 9 27 56 52 57 73 71 120 83 43 10 41 10 71 -1z m735 -42 c60 -65 71 -125 27 -149 -18 -9 -24 -8 -35 7 -7 10 -13 26 -13 36 0 9 -14 33 -31 53 -28 31 -30 39 -21 60 15 34 36 31 73 -7z m-6811 -4 c0 -8 -7 -14 -15 -14 -15 0 -21 21 -9 33 10 9 24 -2 24 -19z m10390 12 c0 -8 -7 -22 -16 -31 -21 -20 -39 -6 -29 24 7 24 45 29 45 7z m-10541 -117 c16 -46 14 -129 -2 -129 -15 0 -43 132 -32 150 11 18 23 11 34 -21z m11563 16 c0 -5 -5 -11 -11 -13 -6 -2 -11 4 -11 13 0 9 5 15 11 13 6 -2 11 -8 11 -13z m-1141 -18 c-1 -12 -15 -9 -19 4 -3 6 1 10 8 8 6 -3 11 -8 11 -12z m-4112 -17 c57 -29 81 -64 81 -119 -1 -60 -36 -102 -104 -125 -119 -39 -331 0 -351 65 -4 10 1 32 10 47 22 37 127 124 168 139 53 19 152 16 196 -7z m319 -14 c2 -9 -2 -24 -9 -32 -17 -21 -33 -2 -25 31 7 28 29 29 34 1z m-5646 -11 c-2 -18 -22 -92 -40 -154 -4 -13 -12 -26 -17 -28 -17 -5 -7 137 12 175 18 36 50 40 45 7z m9808 -6 c0 -20 -15 -26 -25 -9 -9 15 3 43 15 35 5 -3 10 -15 10 -26z m-9616 2 c16 -17 15 -21 -9 -69 -31 -62 -51 -160 -60 -299 -7 -106 -13 -117 -47 -86 -23 21 -24 104 -3 206 52 246 58 267 85 267 9 0 24 -8 34 -19z m1181 -11 c3 -5 4 -14 0 -20 -8 -13 -35 -1 -35 16 0 16 26 19 35 4z m8191 -26 c-5 -13 -10 -14 -18 -6 -6 6 -8 18 -4 28 5 13 10 14 18 6 6 -6 8 -18 4 -28z m-3142 -16 c7 -31 -6 -44 -24 -23 -7 9 -10 25 -6 41 8 30 20 22 30 -18z m3041 -28 c17 -19 17 -22 3 -37 -9 -9 -24 -13 -32 -10 -17 7 -37 47 -29 60 8 14 40 7 58 -13z m-9188 -60 c-4 -25 -11 -81 -17 -125 -6 -44 -14 -127 -19 -185 -7 -111 -13 -130 -36 -130 -23 0 -30 47 -28 195 2 148 24 257 59 296 28 31 47 6 41 -51z m1246 59 c12 -7 30 -20 39 -30 15 -15 23 -16 54 -7 26 7 44 7 61 -1 39 -18 31 -31 -48 -83 -55 -36 -56 -36 -89 -20 -21 10 -39 30 -51 56 -22 48 -23 68 -7 84 15 15 14 15 41 1z m1505 -57 c21 -27 -3 -102 -32 -102 -7 0 -34 22 -60 49 -65 66 -59 86 22 76 35 -4 62 -13 70 -23z m-2654 -44 c7 -12 3 -25 -18 -52 -33 -43 -49 -38 -40 12 11 61 34 77 58 40z m5476 -29 c0 -24 -4 -38 -10 -34 -5 3 -10 22 -10 41 0 19 5 34 10 34 6 0 10 -18 10 -41z m638 -46 c11 -38 28 -116 37 -175 13 -90 14 -118 4 -169 -13 -65 -38 -102 -63 -93 -12 5 -15 22 -14 72 1 37 -1 145 -5 241 -4 95 -4 177 -1 182 12 20 23 5 42 -58z m-6472 -11 c-11 -10 -14 3 -7 38 l6 35 3 -33 c2 -19 1 -36 -2 -40z m9462 20 c3 -16 -2 -22 -17 -22 -26 0 -36 17 -20 36 16 19 33 13 37 -14z m-9063 -64 c-3 -24 -9 -128 -11 -233 -5 -186 -11 -222 -36 -197 -10 10 -13 65 -13 205 0 188 0 193 25 229 33 49 44 48 35 -4z m4955 28 c0 -17 -65 -76 -84 -76 -23 0 -126 42 -126 51 0 4 17 11 38 15 20 3 51 10 67 14 51 14 105 12 105 -4z m499 -33 c14 -57 24 -300 12 -307 -15 -10 -29 48 -42 175 -12 114 -8 169 11 169 5 0 13 -17 19 -37z m-5341 15 c14 -14 16 -119 3 -133 -13 -15 -31 -192 -31 -305 0 -77 -3 -101 -12 -98 -27 9 -38 59 -44 209 -6 160 5 299 26 324 15 18 42 19 58 3z m8540 -64 c48 -51 49 -54 24 -54 -26 0 -92 58 -92 81 0 31 24 22 68 -27z m-8443 -28 c14 -21 14 -33 -5 -137 -24 -133 -25 -193 -5 -274 16 -68 19 -121 7 -129 -15 -9 -50 49 -68 110 -13 47 -15 76 -9 149 5 49 7 124 6 167 -4 115 35 174 74 114z m4483 -23 c4 -24 -26 -40 -34 -18 -8 21 3 47 19 43 6 -3 13 -14 15 -25z m370 -6 c5 -26 -27 -59 -50 -51 -12 3 -18 0 -18 -10 0 -12 10 -16 35 -16 25 0 37 -5 41 -17 3 -10 13 -34 22 -53 26 -52 19 -289 -10 -343 -7 -15 -5 -24 11 -41 12 -12 21 -28 21 -34 0 -7 7 -23 15 -36 10 -14 15 -50 16 -102 1 -49 6 -86 15 -99 8 -11 14 -28 14 -38 0 -10 7 -31 15 -47 13 -26 14 -34 1 -63 -20 -48 -61 -64 -122 -46 -37 11 -48 20 -60 48 -19 46 -18 51 11 51 20 0 25 -5 25 -25 0 -29 22 -42 50 -29 18 8 17 12 -20 52 -31 34 -46 42 -74 42 -62 0 -53 52 15 80 34 14 35 17 12 42 -22 25 -42 23 -53 -7 -20 -54 -49 -21 -86 100 -25 79 -24 81 14 77 26 -3 32 0 32 16 0 21 -32 53 -72 70 -16 6 -28 19 -28 29 0 10 -9 24 -20 31 -15 9 -19 19 -14 37 4 18 -1 37 -20 65 -14 22 -26 46 -26 55 0 8 -15 28 -34 46 -48 43 -53 73 -20 120 22 32 33 39 59 39 40 0 47 7 32 31 -6 10 -8 21 -4 25 3 4 50 8 103 10 54 2 100 6 103 9 13 14 66 -1 69 -18z m3587 -37 c32 -16 64 -30 71 -30 20 0 37 -29 30 -53 -6 -27 -73 -117 -85 -117 -5 0 -14 14 -20 31 -6 16 -16 29 -23 28 -28 -3 -38 2 -38 21 0 24 26 26 56 5 18 -12 24 -12 42 1 34 23 11 64 -36 64 -12 0 -35 14 -52 33 -52 57 -34 62 55 17z m-8772 -107 l-10 -58 -2 70 c-1 51 2 66 10 58 8 -8 9 -28 2 -70z m407 -25 c0 -46 7 -128 17 -183 17 -104 15 -135 -12 -135 -21 0 -30 28 -47 146 -20 132 -7 254 27 254 12 0 15 -15 15 -82z m5625 52 c-5 -8 -11 -8 -17 -2 -6 6 -7 16 -3 22 5 8 11 8 17 2 6 -6 7 -16 3 -22z m2585 10 c0 -11 -7 -20 -15 -20 -8 0 -15 9 -15 20 0 11 7 20 15 20 8 0 15 -9 15 -20z m1064 -39 c29 -32 32 -109 6 -168 -23 -54 -38 -67 -60 -53 -11 7 -12 16 -3 45 9 29 9 45 -3 77 -18 52 -18 68 2 96 19 27 36 28 58 3z m-1154 -47 c0 -8 -7 -14 -15 -14 -15 0 -21 21 -9 33 10 9 24 -2 24 -19z m-8039 -55 c3 -35 11 -74 17 -86 17 -30 15 -83 -2 -83 -20 0 -46 61 -46 107 0 21 -4 54 -10 72 -7 24 -6 39 2 48 21 25 33 7 39 -58z m7799 -14 c0 -39 -21 -55 -45 -35 -19 16 -19 35 1 54 27 27 44 20 44 -19z m355 -15 c0 -27 -22 -39 -31 -16 -8 22 3 49 19 43 6 -2 12 -14 12 -27z m-3995 -86 c0 -14 -4 -23 -10 -19 -5 3 -10 15 -10 26 0 10 5 19 10 19 6 0 10 -12 10 -26z m3750 -29 c0 -30 -14 -39 -30 -21 -8 11 -9 20 0 36 14 25 30 17 30 -15z m-2920 6 c13 -26 13 -31 -4 -31 -13 0 -26 20 -26 41 0 16 19 10 30 -10z m680 -10 c0 -14 -18 -23 -30 -16 -6 4 -8 11 -5 16 8 12 35 12 35 0z m-6430 -36 c0 -8 -4 -15 -9 -15 -13 0 -22 16 -14 24 11 11 23 6 23 -9z m4930 -40 c10 -25 4 -55 -10 -55 -13 0 -20 30 -14 56 8 30 12 30 24 -1z m-4070 -20 c16 -19 6 -45 -18 -45 -25 0 -46 25 -38 45 7 19 40 19 56 0z m7420 -125 c0 -21 -24 -28 -35 -10 -8 14 3 30 21 30 8 0 14 -9 14 -20z m1210 -5 c0 -8 -4 -15 -10 -15 -5 0 -10 7 -10 15 0 8 5 15 10 15 6 0 10 -7 10 -15z m-9452 -66 c-1 -13 -10 -24 -18 -24 -19 0 -26 45 -8 56 18 11 30 -4 26 -32z m1068 -66 c15 -34 14 -47 -1 -150 -10 -62 -21 -116 -27 -119 -5 -3 -16 0 -25 7 -13 11 -15 34 -11 144 2 72 8 136 12 143 14 23 37 12 52 -25z m7314 22 c0 -8 -6 -15 -14 -15 -17 0 -28 14 -19 24 12 12 33 6 33 -9z m-7163 -53 c32 -26 70 -55 84 -64 15 -9 46 -45 69 -79 l43 -63 -11 -86 c-8 -58 -9 -97 -2 -120 21 -72 4 -116 -28 -77 -16 19 -32 131 -32 225 0 68 -3 82 -16 82 -9 0 -22 -17 -31 -40 -19 -48 -33 -37 -33 25 0 51 -16 80 -24 44 -18 -73 -23 -128 -18 -182 4 -44 2 -58 -6 -53 -7 4 -12 24 -12 45 0 20 -5 42 -10 47 -6 6 -13 64 -16 130 -5 94 -10 125 -25 146 -20 28 -24 50 -12 61 12 12 21 7 80 -41z m8105 23 c0 -5 -5 -11 -11 -13 -6 -2 -11 4 -11 13 0 9 5 15 11 13 6 -2 11 -8 11 -13z m-117 -86 c14 -21 -26 -49 -71 -49 -53 0 -62 12 -28 39 28 22 88 28 99 10z m-1294 -40 c8 -16 8 -28 0 -45 -14 -32 -49 -31 -61 2 -20 51 35 90 61 43z m-143 -47 c2 -7 -2 -12 -10 -12 -7 0 -26 -7 -42 -15 -27 -14 -28 -14 -15 2 31 42 58 52 67 25z m286 -89 c-17 -27 -33 -26 -44 2 -8 20 -7 31 1 42 11 12 15 11 33 -7 16 -16 18 -24 10 -37z m810 -5 c5 -15 6 -31 2 -35 -13 -13 -41 13 -44 41 -3 22 0 27 15 24 9 -2 22 -15 27 -30z m-3271 -2 c3 -12 -30 -32 -39 -24 -11 12 5 40 21 36 9 -2 17 -7 18 -12z m-3861 -59 c29 -18 75 -44 101 -56 26 -13 60 -39 75 -58 15 -20 39 -47 55 -61 17 -16 27 -36 27 -53 0 -23 -5 -30 -27 -35 -49 -10 -49 -12 -1 -13 64 -1 94 -15 113 -51 22 -42 7 -66 -61 -97 -54 -25 -58 -25 -211 -18 l-156 8 -34 31 c-62 57 -76 232 -17 209 28 -10 13 24 -26 62 -35 34 -40 44 -34 70 10 45 29 68 76 87 50 20 51 19 120 -25z m3693 37 c14 -6 14 -8 -1 -25 -21 -23 -28 -24 -48 -3 -27 27 4 45 49 28z m3310 -15 c0 -7 -10 -19 -23 -25 -13 -6 -36 -26 -51 -44 -23 -28 -32 -32 -54 -26 -53 13 -17 76 44 76 14 0 34 9 44 20 20 22 40 22 40 -1z m-7600 -20 c8 -23 -7 -45 -24 -35 -6 4 -11 18 -11 32 0 30 26 32 35 3z m6639 -1 c16 -26 -14 -53 -49 -44 -28 7 -41 27 -31 52 8 21 65 15 80 -8z m-2214 -54 c0 -8 -4 -14 -9 -14 -24 0 -112 -84 -141 -134 -35 -61 -47 -73 -61 -59 -17 17 102 182 155 214 31 19 56 16 56 -7z m2020 -16 c1 -13 7 -34 15 -48 18 -32 18 -40 1 -40 -20 0 -25 10 -32 64 -5 31 -3 46 5 46 6 0 11 -10 11 -22z m-1950 -58 c0 -6 -16 -18 -36 -28 -21 -9 -52 -32 -69 -49 -41 -41 -61 -44 -41 -5 15 29 49 63 81 80 25 14 65 15 65 2z m3040 -25 c0 -11 -12 -15 -44 -15 -43 0 -63 10 -49 24 3 3 26 6 50 6 32 0 43 -4 43 -15z m-130 -30 c0 -8 -14 -17 -35 -21 -21 -4 -37 -13 -40 -25 -4 -10 -13 -19 -21 -19 -20 0 -17 29 4 37 9 4 23 15 30 25 16 22 62 24 62 3z m25 -95 c0 -8 -8 -16 -18 -18 -21 -4 -49 16 -41 30 9 15 59 5 59 -12z m-1277 -33 c23 -18 12 -49 -32 -92 -68 -67 -162 -106 -266 -109 -30 -1 -34 2 -32 19 7 36 88 95 131 95 14 0 39 16 65 42 65 65 95 75 134 45z m-5794 -20 c31 -40 34 -77 8 -77 -34 0 -68 56 -57 91 9 27 21 24 49 -14z m6887 -11 c23 -19 25 -25 13 -30 -48 -18 -99 9 -74 39 17 21 27 19 61 -9z m-84 -113 c-3 -3 -11 -2 -17 2 -8 5 -7 11 2 22 12 15 13 14 16 -1 2 -10 1 -20 -1 -23z m-934 11 c13 -13 -24 -63 -70 -96 -83 -60 -135 -85 -228 -107 -91 -22 -132 -20 -150 8 -9 15 45 45 118 66 34 9 92 26 128 36 45 13 83 32 115 59 46 38 73 48 87 34z m464 -56 c31 -29 31 -76 1 -82 -92 -19 -107 -14 -72 25 8 9 17 30 19 45 2 16 4 30 4 32 3 9 28 -2 48 -20z m-5901 -70 c10 -31 10 -39 -2 -49 -30 -25 -69 24 -57 70 9 35 44 23 59 -21z m84 15 c0 -13 -3 -13 -15 -3 -8 7 -12 16 -9 21 8 13 24 1 24 -18z m-311 -20 c0 -34 -1 -36 -11 -16 -6 12 -8 29 -5 37 11 27 17 18 16 -21z m111 11 c16 -42 13 -74 -9 -74 -21 0 -31 19 -31 59 0 47 25 56 40 15z m5845 10 c-29 -23 -124 -64 -147 -64 -30 0 -12 18 45 43 70 32 79 35 102 36 l20 0 -20 -15z"/> <path d="M9696 7097 c-24 -17 -35 -76 -29 -148 l6 -61 -47 -42 c-25 -24 -46 -50 -46 -59 0 -24 39 -46 78 -45 41 1 52 -13 52 -68 0 -99 94 -99 121 0 11 42 41 54 89 38 44 -16 128 -4 141 19 8 16 2 26 -31 59 -43 43 -47 55 -25 84 41 54 3 116 -71 116 -51 0 -107 28 -125 61 -11 21 -66 59 -85 59 -5 0 -18 -6 -28 -13z"/> <path d="M8822 6679 c-54 -27 -62 -34 -62 -59 0 -16 5 -41 12 -55 10 -22 8 -29 -17 -55 -29 -30 -29 -31 -5 -117 16 -55 8 -73 -29 -73 -36 0 -63 -25 -59 -54 2 -15 15 -25 43 -34 22 -7 48 -21 59 -32 18 -18 18 -19 -4 -54 -23 -38 -21 -66 4 -66 8 0 37 11 64 25 74 37 82 31 28 -24 -54 -55 -58 -84 -13 -89 19 -2 39 6 65 26 20 16 48 33 62 37 42 12 221 117 227 132 3 8 -2 22 -11 31 -15 15 -20 15 -68 -3 -29 -10 -77 -31 -107 -47 -87 -46 -106 -36 -43 23 81 75 142 120 174 125 68 11 76 14 81 33 7 30 -20 61 -54 61 -19 0 -42 12 -66 34 -45 39 -61 46 -89 35 -29 -10 -45 3 -64 53 -10 28 -25 48 -43 56 -34 16 -35 39 -2 54 40 18 29 68 -14 68 -4 0 -36 -14 -69 -31z m72 -232 c31 -41 32 -58 6 -82 -18 -17 -21 -17 -45 -1 -37 24 -50 63 -30 92 21 33 39 30 69 -9z"/> <path d="M7781 6137 c-12 -16 1 -67 18 -67 16 0 33 29 29 52 -4 27 -30 35 -47 15z"/> <path d="M8245 5830 c-8 -13 20 -24 41 -16 20 8 9 26 -16 26 -10 0 -22 -5 -25 -10z"/> <path d="M8165 5750 c3 -5 13 -10 21 -10 8 0 12 5 9 10 -3 6 -13 10 -21 10 -8 0 -12 -4 -9 -10z"/> <path d="M8205 5620 c-3 -5 3 -10 15 -10 12 0 18 5 15 10 -3 6 -10 10 -15 10 -5 0 -12 -4 -15 -10z"/> <path d="M8229 5529 c-12 -8 -12 -10 1 -19 22 -14 40 -12 40 4 0 18 -23 27 -41 15z"/> <path d="M9465 5679 c-38 -17 -83 -35 -100 -41 -40 -13 -75 -53 -75 -84 0 -15 15 -39 40 -64 50 -50 86 -53 118 -10 16 21 31 30 50 30 16 0 37 7 48 15 22 16 60 20 69 6 9 -16 -25 -41 -57 -41 -42 0 -101 -59 -96 -97 4 -38 31 -41 65 -7 17 17 45 31 72 36 49 9 111 51 111 74 0 34 -90 134 -120 134 -19 0 -21 4 -15 29 5 23 2 32 -14 40 -24 13 -12 16 -96 -20z"/> <path d="M8565 5321 c-7 -12 12 -24 25 -16 11 7 4 25 -10 25 -5 0 -11 -4 -15 -9z"/> <path d="M8730 5280 c0 -40 60 -36 68 4 3 12 -4 16 -32 16 -30 0 -36 -4 -36 -20z"/> <path d="M9848 2479 c-27 -15 -21 -31 9 -27 17 2 29 10 31 21 4 19 -14 22 -40 6z"/> <path d="M9977 2420 c8 -29 25 -37 21 -9 -1 12 -8 24 -15 26 -7 3 -9 -3 -6 -17z"/> <path d="M6170 1805 c0 -19 44 -42 95 -49 l40 -6 -52 24 c-28 14 -54 30 -58 35 -9 16 -25 13 -25 -4z"/> <path d="M11457 10185 c-17 -51 19 -255 44 -255 15 0 10 91 -7 155 -9 33 -19 74 -23 90 -7 27 -8 28 -14 10z"/> <path d="M11592 9703 c-6 -15 -11 -44 -11 -63 1 -19 -4 -48 -10 -63 -15 -39 -14 -57 4 -57 33 0 40 -85 9 -111 -16 -13 -20 -144 -4 -154 9 -6 14 7 24 70 2 17 12 55 22 85 26 84 29 139 10 153 -23 17 -34 67 -23 103 6 20 6 38 0 49 -9 15 -11 13 -21 -12z"/> <path d="M11730 9573 c0 -16 4 -35 10 -43 14 -23 23 11 11 43 -13 35 -21 34 -21 0z"/> <path d="M11480 9536 c0 -14 5 -26 10 -26 6 0 10 9 10 19 0 11 -4 23 -10 26 -6 4 -10 -5 -10 -19z"/> <path d="M11666 9389 c-3 -17 -6 -70 -6 -116 0 -63 3 -84 13 -81 8 3 13 36 15 108 3 102 -9 152 -22 89z"/> <path d="M11777 9403 c-3 -5 0 -31 6 -58 l12 -50 3 42 c3 42 -10 84 -21 66z"/> <path d="M11527 9143 c-4 -3 -7 -15 -7 -25 0 -26 24 -17 28 10 3 21 -8 29 -21 15z"/> <path d="M9180 4868 c-14 -6 -71 -14 -128 -18 -93 -7 -136 -19 -120 -36 19 -18 368 36 368 57 0 12 -89 10 -120 -3z"/> <path d="M9500 4866 c-7 -9 -21 -16 -31 -16 -19 0 -60 -17 -136 -54 -60 -30 -39 -45 29 -22 29 11 62 24 73 30 11 6 45 20 75 31 30 11 54 25 53 30 -4 17 -49 17 -63 1z"/> <path d="M8311 4841 c-16 -10 -14 -11 69 -27 56 -10 240 -13 240 -3 0 5 -34 9 -76 9 -41 0 -83 4 -92 9 -27 14 -126 22 -141 12z"/> <path d="M9530 4720 c-12 -8 -11 -10 8 -10 12 0 22 5 22 10 0 13 -11 13 -30 0z"/> <path d="M9500 4598 c-14 -5 -57 -18 -97 -29 -39 -10 -84 -24 -100 -30 -15 -6 -49 -13 -75 -15 -66 -4 -88 -12 -88 -35 0 -28 48 -22 135 16 17 8 46 16 65 18 40 5 172 39 213 56 15 6 27 15 27 21 0 13 -47 12 -80 -2z"/> <path d="M7964 4188 c-6 -7 -19 -32 -29 -56 -18 -42 -18 -43 2 -70 11 -15 34 -36 51 -47 47 -30 56 -68 48 -214 -4 -69 -12 -152 -18 -184 -9 -49 -8 -63 7 -97 15 -33 16 -46 6 -84 -18 -73 -14 -91 33 -150 39 -47 45 -62 48 -107 3 -48 7 -56 36 -75 18 -13 37 -24 42 -26 6 -2 19 -37 31 -78 11 -41 40 -113 65 -159 43 -82 107 -248 125 -326 35 -156 34 -141 5 -175 -14 -17 -26 -35 -26 -39 0 -13 -186 -197 -232 -229 -26 -18 -69 -36 -95 -41 -47 -9 -93 -46 -93 -75 0 -26 28 -49 81 -64 42 -13 95 -17 235 -17 l182 0 53 38 c30 21 74 54 98 73 43 34 45 35 111 28 61 -6 68 -4 96 19 25 22 29 32 28 79 0 57 -26 152 -73 271 -33 82 -33 75 3 316 9 58 16 132 16 167 0 90 -67 339 -110 409 -12 20 -20 50 -20 78 0 57 -14 94 -48 130 l-26 27 17 48 c9 26 17 60 17 75 0 16 18 76 40 134 45 120 47 133 23 161 -25 28 -160 64 -258 68 -147 6 -270 19 -285 29 -8 6 -33 10 -55 11 -90 2 -149 48 -124 96 10 18 17 20 68 14 130 -16 199 -26 241 -35 62 -14 308 -25 354 -17 22 4 36 12 33 19 -2 8 -55 14 -173 17 -93 3 -174 9 -180 13 -6 3 -56 11 -110 17 -105 11 -189 24 -215 35 -9 3 -20 0 -25 -7z m257 -620 c14 -22 11 -28 -23 -42 -23 -10 -40 -11 -60 -4 -38 13 -43 26 -22 50 15 16 27 19 58 15 21 -3 43 -11 47 -19z m-24 -140 c4 -7 15 -33 24 -58 13 -37 21 -46 45 -50 36 -6 43 -34 12 -54 -36 -23 -123 3 -166 50 -36 38 -38 70 -5 107 18 20 78 23 90 5z m198 -28 c24 -47 20 -56 -26 -52 -39 4 -40 5 -33 36 3 17 8 34 11 39 10 16 33 5 48 -23z m66 -79 c22 -18 22 -20 7 -26 -26 -10 -48 1 -48 25 0 25 11 25 41 1z m-226 -143 c30 -13 28 -32 -4 -36 -25 -4 -51 14 -51 34 0 17 21 18 55 2z m279 -994 c47 -26 64 -64 28 -64 -21 0 -114 60 -120 78 -7 21 42 14 92 -14z m-194 -79 c0 -8 -9 -15 -20 -15 -11 0 -20 7 -20 15 0 8 9 15 20 15 11 0 20 -7 20 -15z"/> <path d="M10164 1732 c-41 -30 -94 -93 -94 -111 0 -27 58 2 93 46 43 54 116 65 159 26 29 -26 21 -41 -24 -48 -54 -9 -118 -41 -118 -59 0 -33 81 -60 132 -44 80 26 98 37 98 63 0 14 -9 30 -19 37 -15 9 -17 15 -8 28 13 22 3 49 -20 56 -10 3 -31 12 -46 20 -47 24 -108 18 -153 -14z m171 -143 c-8 -12 -35 -12 -35 0 0 11 22 20 33 14 4 -2 5 -9 2 -14z"/> </g> </svg>